{"glyphs":{"0":{"ha":578,"x_min":56,"x_max":522,"o":"m 289 -28 q 198 -10 240 -28 q 124 40 156 8 q 74 115 92 72 q 56 206 56 157 l 56 678 q 74 769 56 726 q 124 843 92 811 q 198 893 156 875 q 289 911 240 911 q 379 893 336 911 q 453 843 422 875 q 503 769 485 811 q 522 678 522 726 l 522 206 q 503 115 522 157 q 453 40 485 72 q 379 -10 422 8 q 289 -28 336 -28 m 289 778 q 218 749 247 778 q 189 678 189 719 l 189 206 q 218 135 189 164 q 289 106 247 106 q 359 135 329 106 q 389 206 389 164 l 389 678 q 359 749 389 719 q 289 778 329 778 z "},"1":{"ha":578,"x_min":89,"x_max":389,"o":"m 203 631 q 156 611 183 611 q 108 631 128 611 q 89 678 89 650 q 108 725 89 706 l 275 892 q 347 906 307 924 q 378 881 367 899 q 389 844 389 864 l 389 39 q 369 -8 389 11 q 322 -28 350 -28 q 275 -8 294 -28 q 256 39 256 11 l 256 683 q 237 665 246 675 q 221 649 228 656 q 203 631 213 639 z "},"2":{"ha":578,"x_min":53,"x_max":508,"o":"m 94 703 q 63 744 71 718 q 69 794 56 771 q 210 903 117 876 q 299 910 254 915 q 385 882 344 904 q 496 744 468 838 q 504 655 508 700 q 479 569 500 610 q 385 390 431 476 q 345 314 365 353 q 305 238 325 275 q 267 169 285 201 q 238 111 250 136 l 439 111 q 486 92 467 111 q 506 44 506 72 q 486 -3 506 17 q 439 -22 467 -22 l 128 -22 q 71 10 92 -22 q 68 75 53 40 l 361 631 q 368 707 379 668 q 321 765 356 746 q 244 774 285 785 q 185 728 207 763 q 144 697 171 704 q 94 703 118 689 z "},"3":{"ha":578,"x_min":36,"x_max":486,"o":"m 279 108 q 332 144 311 118 q 353 206 353 171 l 353 289 q 324 360 353 331 q 253 389 294 389 q 206 408 225 389 q 186 456 186 428 q 206 503 186 483 q 253 522 225 522 q 324 551 294 522 q 353 622 353 581 l 353 678 q 332 738 353 711 q 279 774 311 765 q 215 770 246 783 q 167 728 183 757 q 125 697 151 704 q 75 703 99 689 q 44 744 51 718 q 50 794 36 771 q 99 854 69 829 q 163 894 128 879 q 236 910 197 908 q 313 903 275 913 q 383 872 351 893 q 438 820 415 850 q 474 753 461 790 q 486 678 486 717 l 486 622 q 467 531 486 574 q 415 456 449 488 q 467 381 449 424 q 486 289 486 338 l 486 206 q 474 129 486 165 q 438 63 461 93 q 383 12 415 33 q 313 -19 351 -10 q 236 -28 275 -31 q 163 -10 197 -25 q 99 29 128 4 q 50 89 69 54 q 44 139 36 113 q 75 181 51 165 q 125 187 99 194 q 167 156 151 179 q 215 113 183 126 q 279 108 246 100 z "},"4":{"ha":578,"x_min":29,"x_max":558,"o":"m 103 167 q 49 194 68 167 q 39 254 29 219 l 233 865 q 266 904 242 892 q 318 908 290 917 q 351 883 339 901 q 364 844 364 865 q 361 824 364 838 q 293 610 325 711 q 265 522 279 567 q 238 435 251 476 q 213 359 224 394 q 194 300 201 324 l 314 300 l 314 428 q 333 475 314 456 q 381 494 353 494 q 428 475 408 494 q 447 428 447 456 l 447 300 l 492 300 q 539 281 519 300 q 558 233 558 261 q 539 186 558 206 q 492 167 519 167 l 447 167 l 447 39 q 428 -8 447 11 q 381 -28 408 -28 q 333 -8 353 -28 q 314 39 314 11 l 314 167 l 103 167 l 103 167 z "},"5":{"ha":578,"x_min":71,"x_max":521,"o":"m 126 378 q 90 401 104 383 q 76 442 76 418 l 76 839 q 96 886 76 867 q 143 906 115 906 l 432 906 q 479 886 460 906 q 499 839 499 867 q 479 792 499 811 q 432 772 460 772 l 210 772 l 210 578 q 349 583 278 601 q 418 552 386 574 q 473 501 450 531 q 508 434 496 471 q 521 358 521 397 l 521 206 q 508 129 521 165 q 473 63 496 93 q 418 12 450 33 q 349 -19 386 -10 q 199 -10 271 -40 q 86 89 126 19 q 78 139 71 113 q 110 181 86 165 q 160 187 133 194 q 201 156 186 179 q 249 113 218 126 q 314 108 281 100 q 367 144 346 118 q 388 206 388 171 l 388 358 q 367 419 388 392 q 314 454 346 446 q 249 451 281 464 q 201 408 218 438 q 169 380 190 389 q 126 378 149 371 z "},"6":{"ha":578,"x_min":68,"x_max":535,"o":"m 301 -28 q 210 -10 253 -28 q 137 40 168 8 q 87 115 106 72 q 68 206 68 157 l 68 678 q 81 753 68 717 q 116 820 93 790 q 171 872 139 850 q 242 903 203 893 q 318 910 279 913 q 392 894 357 908 q 456 854 426 879 q 504 794 485 829 q 510 744 518 771 q 479 703 503 718 q 429 697 456 689 q 389 728 403 704 q 340 770 371 757 q 276 774 308 783 q 222 738 243 765 q 201 678 201 711 l 201 556 q 301 578 250 578 q 392 560 350 578 q 467 510 435 542 q 517 435 499 478 q 535 344 535 393 l 535 206 q 517 115 535 157 q 467 40 499 72 q 392 -10 435 8 q 301 -28 350 -28 m 301 444 q 231 415 260 444 q 201 344 201 386 l 201 206 q 231 135 201 164 q 301 106 260 106 q 372 135 343 106 q 401 206 401 164 l 401 344 q 372 415 401 386 q 301 444 343 444 z "},"7":{"ha":578,"x_min":51,"x_max":524,"o":"m 118 661 q 71 681 90 661 q 51 728 51 700 l 51 839 q 71 886 51 867 q 118 906 90 906 l 451 906 q 504 881 483 906 q 517 824 524 856 l 322 24 q 292 -19 315 -4 q 242 -26 269 -33 q 204 -2 218 -19 q 190 39 190 15 q 191 47 190 43 q 193 54 192 50 q 268 363 233 219 q 297 486 282 424 q 326 603 313 549 q 349 703 339 658 q 367 772 360 747 l 185 772 l 185 728 q 165 681 185 700 q 118 661 146 661 z "},"8":{"ha":578,"x_min":56,"x_max":522,"o":"m 289 -28 q 198 -10 240 -28 q 124 40 156 8 q 74 115 93 72 q 56 206 56 157 l 56 289 q 75 381 56 338 q 126 456 94 424 q 75 531 94 488 q 56 622 56 574 l 56 678 q 74 769 56 726 q 124 843 93 811 q 198 893 156 875 q 289 911 240 911 q 380 893 338 911 q 454 843 422 875 q 504 769 486 811 q 522 678 522 726 l 522 622 q 503 531 522 574 q 453 456 485 488 q 503 381 485 424 q 522 289 522 338 l 522 206 q 504 115 522 157 q 454 40 486 72 q 380 -10 422 8 q 289 -28 338 -28 m 189 622 q 219 551 189 581 q 289 522 249 522 q 360 551 331 522 q 389 622 389 581 l 389 678 q 360 749 389 719 q 289 778 331 778 q 219 749 249 778 q 189 678 189 719 l 189 622 m 389 289 q 360 360 389 331 q 289 389 331 389 q 219 360 249 389 q 189 289 189 331 l 189 206 q 219 135 189 164 q 289 106 249 106 q 360 135 331 106 q 389 206 389 164 l 389 289 z "},"9":{"ha":578,"x_min":43,"x_max":510,"o":"m 276 306 q 185 324 228 306 q 112 374 143 342 q 62 448 81 406 q 43 539 43 490 l 43 678 q 62 769 43 726 q 112 843 81 811 q 185 893 143 875 q 276 911 228 911 q 367 893 325 911 q 442 843 410 875 q 492 769 474 811 q 510 678 510 726 l 510 206 q 497 129 510 165 q 462 63 485 93 q 407 12 439 33 q 338 -19 375 -10 q 261 -28 300 -31 q 188 -10 222 -25 q 124 29 153 4 q 75 89 94 54 q 68 139 61 113 q 99 181 75 165 q 149 187 122 194 q 190 156 176 179 q 239 113 207 126 q 303 108 271 100 q 356 144 335 118 q 376 206 376 171 l 376 328 q 276 306 329 306 m 276 778 q 206 749 236 778 q 176 678 176 719 l 176 539 q 206 468 176 497 q 276 439 236 439 q 347 468 318 439 q 376 539 376 497 l 376 678 q 347 749 376 719 q 276 778 318 778 z "},"O":{"ha":578,"x_min":56,"x_max":522,"o":"m 289 -28 q 198 -10 240 -28 q 124 40 156 8 q 74 115 92 72 q 56 206 56 157 l 56 678 q 74 769 56 726 q 124 843 92 811 q 198 893 156 875 q 289 911 240 911 q 380 893 338 911 q 454 843 422 875 q 504 769 486 811 q 522 678 522 726 l 522 206 q 504 115 522 157 q 454 40 486 72 q 380 -10 422 8 q 289 -28 338 -28 m 289 778 q 218 749 247 778 q 189 678 189 719 l 189 206 q 218 135 189 164 q 289 106 247 106 q 360 135 331 106 q 389 206 389 164 l 389 678 q 360 749 389 719 q 289 778 331 778 z "},"Q":{"ha":578,"x_min":56,"x_max":528,"o":"m 522 206 q 506 118 522 158 q 458 46 489 78 l 514 -50 q 520 -100 528 -74 q 489 -140 513 -126 q 439 -148 465 -156 q 399 -117 413 -140 l 343 -21 q 289 -28 315 -28 q 198 -10 240 -28 q 124 40 156 8 q 74 115 93 72 q 56 206 56 157 l 56 678 q 74 769 56 726 q 124 843 93 811 q 198 893 156 875 q 289 911 240 911 q 380 893 338 911 q 454 843 422 875 q 504 769 486 811 q 522 678 522 726 l 522 206 m 189 206 q 218 135 189 164 q 289 106 247 106 q 360 135 331 106 q 389 206 389 164 l 389 678 q 360 749 389 719 q 289 778 331 778 q 218 749 247 778 q 189 678 189 719 l 189 206 z "},"R":{"ha":578,"x_min":72,"x_max":546,"o":"m 539 594 q 505 472 539 526 q 414 388 471 417 l 535 63 q 534 11 546 36 q 496 -24 522 -14 q 445 -22 469 -33 q 410 15 421 -11 l 281 361 l 206 361 l 206 39 q 186 -8 206 11 q 139 -28 167 -28 q 92 -8 111 -28 q 72 39 72 11 l 72 839 q 92 886 72 867 q 139 906 111 906 l 306 906 q 397 888 354 906 q 471 838 439 869 q 521 763 503 806 q 539 672 539 721 l 539 594 m 206 494 l 306 494 q 376 524 347 494 q 406 594 406 553 l 406 672 q 376 743 406 714 q 306 772 347 772 l 206 772 l 206 494 z "},"S":{"ha":531,"x_min":33,"x_max":500,"o":"m 321 128 q 350 161 340 142 q 363 204 360 181 q 333 288 367 251 l 111 515 q 58 599 75 551 q 46 696 42 646 q 74 790 50 746 q 138 864 97 833 q 227 906 178 894 q 325 907 276 917 q 415 867 374 896 q 481 794 456 839 q 487 744 494 771 q 456 703 479 718 q 406 697 432 689 q 365 728 379 704 q 299 776 342 765 q 218 757 254 785 q 179 685 182 731 q 207 608 175 640 l 428 381 q 482 294 464 343 q 496 194 500 246 q 467 97 492 142 q 401 21 442 53 q 310 -22 360 -11 q 208 -24 260 -33 q 115 17 157 -12 q 49 92 74 47 q 41 142 33 115 q 72 183 49 169 q 122 190 96 197 q 164 158 149 182 q 235 107 188 118 q 321 128 283 99 z "},"T":{"ha":528,"x_min":17,"x_max":511,"o":"m 444 906 q 492 886 472 906 q 511 839 511 867 q 492 792 511 811 q 444 772 472 772 l 331 772 l 331 39 q 311 -8 331 11 q 264 -28 292 -28 q 217 -8 236 -28 q 197 39 197 11 l 197 772 l 83 772 q 36 792 56 772 q 17 839 17 811 q 36 886 17 867 q 83 906 56 906 l 444 906 z "},"U":{"ha":589,"x_min":61,"x_max":528,"o":"m 194 206 q 224 135 194 164 q 294 106 253 106 q 365 135 335 106 q 394 206 394 164 l 394 844 q 414 892 394 872 q 461 911 433 911 q 508 892 489 911 q 528 844 528 872 l 528 206 q 509 115 528 157 q 459 40 490 72 q 385 -10 428 8 q 294 -28 342 -28 q 203 -10 246 -28 q 129 40 161 8 q 79 115 97 72 q 61 206 61 157 l 61 844 q 81 892 61 872 q 128 911 100 911 q 175 892 156 911 q 194 844 194 872 l 194 206 l 194 206 z "},"V":{"ha":622,"x_min":18,"x_max":606,"o":"m 25 826 q 31 878 18 854 q 72 908 44 901 q 123 902 99 915 q 154 863 147 889 q 208 664 181 764 q 260 478 232 578 q 313 289 288 378 q 364 478 336 378 q 415 664 392 578 q 469 863 442 764 q 501 902 476 889 q 551 908 525 915 q 592 878 579 901 q 599 826 606 854 l 376 21 q 352 -15 369 -1 q 313 -28 335 -28 q 272 -15 289 -28 q 247 21 254 -1 l 25 826 z "},"W":{"ha":969,"x_min":24,"x_max":944,"o":"m 79 910 q 130 902 107 917 q 160 860 153 888 q 203 681 181 772 q 245 507 222 601 q 290 324 268 413 q 334 507 311 413 q 376 681 357 601 q 419 860 399 772 q 443 897 425 883 q 485 911 461 911 q 526 897 508 911 q 549 860 543 883 q 592 681 569 772 q 634 507 611 601 q 679 324 657 413 q 723 507 700 413 q 765 681 746 601 q 808 860 788 772 q 838 902 815 888 q 889 910 861 917 q 931 879 917 903 q 938 829 944 856 l 743 24 q 720 -14 738 0 q 679 -28 703 -28 q 638 -14 656 -28 q 614 24 619 0 q 571 203 593 111 q 528 376 551 282 q 485 560 506 469 q 440 376 463 469 q 397 203 417 282 q 354 24 375 111 q 331 -14 349 0 q 290 -28 314 -28 q 249 -14 267 -28 q 225 24 231 0 l 31 829 q 38 879 24 856 q 79 910 53 903 z "},"X":{"ha":586,"x_min":13,"x_max":574,"o":"m 54 -21 q 22 18 31 -8 q 25 68 13 44 l 218 456 l 39 814 q 35 865 26 839 q 68 904 44 892 q 119 908 93 917 q 158 874 146 899 l 293 604 l 428 874 q 467 908 440 899 q 517 904 493 917 q 551 865 542 892 q 547 814 560 839 l 368 456 l 561 68 q 565 18 574 44 q 531 -21 556 -8 q 481 -24 507 -33 q 442 8 454 -15 l 293 307 l 144 8 q 106 -24 132 -15 q 54 -21 79 -33 z "},"Y":{"ha":558,"x_min":13,"x_max":546,"o":"m 279 -28 q 232 -8 251 -28 q 213 39 213 11 l 213 440 l 25 814 q 22 865 13 839 q 56 904 31 892 q 106 908 79 917 q 144 874 132 899 l 190 782 q 233 694 210 742 q 279 604 257 647 q 324 694 300 647 q 368 782 349 742 l 414 874 q 453 908 426 899 q 503 904 479 917 q 537 865 528 892 q 533 814 546 839 l 346 440 l 346 39 q 326 -8 346 11 q 279 -28 307 -28 z "},"Z":{"ha":533,"x_min":33,"x_max":500,"o":"m 33 839 q 53 886 33 867 q 100 906 72 906 l 433 906 q 489 876 468 906 q 500 839 500 858 q 494 813 500 824 q 369 515 426 653 q 319 397 344 457 q 272 282 294 336 q 230 183 249 228 q 200 111 211 138 l 433 111 q 481 92 461 111 q 500 44 500 72 q 481 -3 500 17 q 433 -22 461 -22 l 100 -22 q 44 7 65 -22 q 33 44 33 25 q 39 71 33 60 q 163 367 104 229 q 213 486 188 425 q 260 601 238 547 q 303 700 283 656 q 333 772 322 744 l 100 772 q 53 792 72 772 q 33 839 33 811 z "},"N":{"ha":667,"x_min":72,"x_max":594,"o":"m 543 -26 q 499 -22 519 -32 q 468 10 478 -11 q 381 192 426 99 q 295 367 342 271 q 206 553 249 463 l 206 39 q 186 -8 206 11 q 139 -28 167 -28 q 92 -8 111 -28 q 72 39 72 11 l 72 844 q 86 886 72 868 q 124 910 100 904 q 167 905 147 915 q 199 874 188 894 q 286 692 240 785 q 371 517 325 613 q 461 331 417 421 l 461 844 q 481 892 461 872 q 528 911 500 911 q 575 892 556 911 q 594 844 594 872 l 594 39 q 580 -3 594 15 q 543 -26 565 -21 z "},"M":{"ha":722,"x_min":72,"x_max":650,"o":"m 139 -28 q 92 -8 111 -28 q 72 39 72 11 l 72 844 q 86 886 72 868 q 124 910 100 904 q 168 905 147 915 q 199 872 189 894 q 256 751 226 811 q 308 640 279 699 q 361 529 338 581 q 413 640 385 581 q 465 751 442 699 q 522 872 493 811 q 553 905 533 894 q 597 910 574 915 q 635 886 621 904 q 650 844 650 868 l 650 39 q 631 -8 650 11 q 583 -28 611 -28 q 536 -8 556 -28 q 517 39 517 11 l 517 546 q 482 472 499 508 q 451 408 465 436 q 421 344 436 375 q 397 316 413 326 q 361 306 381 306 q 300 344 318 306 q 269 408 285 375 q 239 472 256 436 q 206 546 222 508 l 206 39 q 186 -8 206 11 q 139 -28 167 -28 z "},"L":{"ha":483,"x_min":72,"x_max":483,"o":"m 139 -22 q 92 -3 111 -22 q 72 44 72 17 l 72 844 q 92 892 72 872 q 139 911 111 911 q 186 892 167 911 q 206 844 206 872 l 206 111 l 417 111 q 464 92 444 111 q 483 44 483 72 q 464 -3 483 17 q 417 -22 444 -22 l 139 -22 l 139 -22 z "},"K":{"ha":585,"x_min":72,"x_max":572,"o":"m 561 68 q 563 17 572 43 q 529 -21 554 -10 q 478 -24 504 -33 q 440 10 453 -15 l 258 389 l 206 317 l 206 39 q 186 -8 206 11 q 139 -28 167 -28 q 92 -8 111 -28 q 72 39 72 11 l 72 844 q 92 892 72 872 q 139 911 111 911 q 186 892 167 911 q 206 844 206 872 l 206 546 l 446 883 q 490 910 463 906 q 539 899 517 914 q 567 856 563 883 q 554 806 571 829 l 346 513 l 561 68 z "},"J":{"ha":463,"x_min":7,"x_max":396,"o":"m 396 206 q 364 89 396 143 q 279 3 332 35 q 162 -28 225 -28 q 46 3 99 -28 q 15 44 22 18 q 21 94 7 71 q 62 126 35 118 q 113 119 89 133 q 163 106 136 106 q 213 119 189 106 q 249 155 236 132 q 263 206 263 178 l 263 844 q 282 892 263 872 q 329 911 301 911 q 376 892 357 911 q 396 844 396 872 l 396 206 l 396 206 z "},"I":{"ha":278,"x_min":72,"x_max":206,"o":"m 139 -28 q 92 -8 111 -28 q 72 39 72 11 l 72 844 q 92 892 72 872 q 139 911 111 911 q 186 892 167 911 q 206 844 206 872 l 206 39 q 186 -8 206 11 q 139 -28 167 -28 z "},"H":{"ha":611,"x_min":72,"x_max":539,"o":"m 406 844 q 425 892 406 872 q 472 911 444 911 q 519 892 500 911 q 539 844 539 872 l 539 39 q 519 -8 539 11 q 472 -28 500 -28 q 425 -8 444 -28 q 406 39 406 11 l 406 389 l 206 389 l 206 39 q 186 -8 206 11 q 139 -28 167 -28 q 92 -8 111 -28 q 72 39 72 11 l 72 844 q 92 892 72 872 q 139 911 111 911 q 186 892 167 911 q 206 844 206 872 l 206 522 l 406 522 l 406 844 l 406 844 z "},"G":{"ha":572,"x_min":56,"x_max":522,"o":"m 456 494 q 503 475 483 494 q 522 428 522 456 l 522 206 q 504 115 522 157 q 454 40 486 72 q 380 -10 422 8 q 289 -28 338 -28 q 198 -10 240 -28 q 124 40 156 8 q 74 115 93 72 q 56 206 56 157 l 56 678 q 68 753 56 717 q 103 820 81 790 q 158 872 126 850 q 229 903 190 893 q 306 910 267 913 q 379 894 344 908 q 443 854 414 879 q 492 794 472 829 q 498 744 506 771 q 467 703 490 718 q 417 697 443 689 q 376 728 390 704 q 327 770 358 757 q 264 774 296 783 q 210 738 231 765 q 189 678 189 711 l 189 206 q 219 135 189 164 q 289 106 249 106 q 360 135 331 106 q 389 206 389 164 l 389 361 l 317 361 q 269 381 289 361 q 250 428 250 400 q 269 475 250 456 q 317 494 289 494 l 456 494 l 456 494 z "},"F":{"ha":500,"x_min":72,"x_max":483,"o":"m 139 -22 q 92 -3 111 -22 q 72 44 72 17 l 72 839 q 92 886 72 867 q 139 906 111 906 l 417 906 q 464 886 444 906 q 483 839 483 867 q 464 792 483 811 q 417 772 444 772 l 206 772 l 206 522 l 389 522 q 436 503 417 522 q 456 456 456 483 q 436 408 456 428 q 389 389 417 389 l 206 389 l 206 44 q 186 -3 206 17 q 139 -22 167 -22 z "},"E":{"ha":511,"x_min":72,"x_max":483,"o":"m 72 839 q 92 886 72 867 q 139 906 111 906 l 417 906 q 464 886 444 906 q 483 839 483 867 q 464 792 483 811 q 417 772 444 772 l 206 772 l 206 522 l 389 522 q 436 503 417 522 q 456 456 456 483 q 436 408 456 428 q 389 389 417 389 l 206 389 l 206 111 l 417 111 q 464 92 444 111 q 483 44 483 72 q 464 -3 483 17 q 417 -22 444 -22 l 139 -22 q 92 -3 111 -22 q 72 44 72 17 l 72 839 l 72 839 z "},"D":{"ha":594,"x_min":72,"x_max":539,"o":"m 306 906 q 397 888 354 906 q 471 838 439 869 q 521 763 503 806 q 539 672 539 721 l 539 211 q 521 120 539 163 q 471 46 503 78 q 397 -4 439 14 q 306 -22 354 -22 l 139 -22 q 92 -3 111 -22 q 72 44 72 17 l 72 839 q 92 886 72 867 q 139 906 111 906 l 306 906 m 406 672 q 376 743 406 714 q 306 772 347 772 l 206 772 l 206 111 l 306 111 q 376 140 347 111 q 406 211 406 169 l 406 672 z "},"C":{"ha":535,"x_min":56,"x_max":506,"o":"m 228 -19 q 158 12 190 -10 q 103 63 126 33 q 68 129 81 93 q 56 206 56 165 l 56 678 q 68 753 56 717 q 103 820 81 790 q 158 872 126 850 q 228 903 190 893 q 378 894 306 924 q 490 794 450 864 q 498 744 506 771 q 467 703 490 718 q 417 697 443 689 q 375 728 390 704 q 327 770 358 757 q 263 774 296 783 q 210 738 231 765 q 189 678 189 711 l 189 206 q 210 144 189 171 q 263 108 231 118 q 327 113 296 100 q 375 156 358 126 q 417 187 390 179 q 467 181 443 194 q 498 139 490 165 q 490 89 506 113 q 378 -10 450 19 q 228 -19 306 -40 z "},"B":{"ha":594,"x_min":72,"x_max":539,"o":"m 539 622 q 519 531 539 574 q 468 456 500 488 q 519 381 500 424 q 539 289 539 338 l 539 211 q 520 120 539 163 q 470 46 501 78 q 396 -4 439 14 q 306 -22 353 -22 l 139 -22 q 92 -3 111 -22 q 72 44 72 17 l 72 839 q 92 886 72 867 q 139 906 111 906 l 306 906 q 396 888 353 906 q 470 838 439 869 q 520 763 501 806 q 539 672 539 721 l 539 622 m 406 289 q 376 360 406 331 q 306 389 347 389 l 206 389 l 206 111 l 306 111 q 376 140 347 111 q 406 211 406 169 l 406 289 m 306 522 q 376 551 347 522 q 406 622 406 581 l 406 672 q 376 743 406 714 q 306 772 347 772 l 206 772 l 206 522 l 306 522 z "},"A":{"ha":600,"x_min":7,"x_max":593,"o":"m 586 57 q 580 6 593 29 q 540 -25 567 -18 q 489 -19 513 -32 q 458 21 465 -6 q 447 61 453 38 q 434 108 442 81 q 418 167 426 135 l 182 167 q 165 108 172 135 q 153 61 158 81 q 142 21 147 38 q 111 -19 135 -6 q 60 -25 88 -32 q 20 6 33 -18 q 14 57 7 29 l 236 863 q 259 898 242 885 q 300 911 276 911 q 341 898 324 911 q 364 863 358 885 l 586 57 m 381 300 q 340 449 361 372 q 300 593 319 525 q 260 449 281 525 q 219 300 239 372 l 381 300 z "},"u":{"ha":544,"x_min":65,"x_max":468,"o":"m 267 -18 q 188 -2 225 -18 q 124 41 151 14 q 81 105 97 68 q 65 183 65 142 l 65 594 q 83 639 65 621 q 128 657 101 657 q 172 639 154 657 q 190 594 190 621 l 190 183 q 213 129 190 151 q 267 107 235 107 l 343 107 l 343 594 q 361 639 343 621 q 406 657 379 657 q 450 639 432 657 q 468 594 468 621 l 468 44 q 450 0 468 18 q 406 -18 432 -18 l 267 -18 l 267 -18 z "},"v":{"ha":514,"x_min":24,"x_max":490,"o":"m 31 576 q 35 624 24 601 q 72 654 47 647 q 120 649 97 661 q 150 613 143 638 q 185 496 167 556 q 219 382 200 444 q 257 257 238 319 q 295 382 276 319 q 329 496 314 444 q 364 613 347 556 q 394 649 371 638 q 442 654 417 661 q 478 624 467 647 q 483 576 490 601 l 317 21 q 294 -11 311 1 q 257 -24 278 -24 q 220 -11 236 -24 q 197 21 204 1 l 31 576 z "},"w":{"ha":747,"x_min":28,"x_max":718,"o":"m 35 579 q 41 626 28 604 q 79 656 54 649 q 126 649 104 663 q 156 610 149 635 q 181 511 167 564 q 205 410 192 467 q 233 296 218 354 q 263 410 249 354 q 288 511 276 467 q 313 610 301 564 q 335 644 318 631 q 372 657 351 657 q 411 644 394 657 q 433 610 428 631 q 458 511 444 564 q 483 410 469 467 q 511 296 496 354 q 540 410 526 354 q 565 511 554 467 q 590 610 579 564 q 619 649 597 635 q 665 656 640 663 q 704 626 690 649 q 711 579 718 604 l 572 24 q 550 -10 567 3 q 511 -24 533 -24 q 474 -10 490 -24 q 451 24 457 3 q 426 122 440 69 q 401 222 415 167 q 372 336 388 278 q 344 222 357 278 q 319 122 331 167 q 294 24 306 69 q 272 -10 289 3 q 233 -24 256 -24 q 196 -10 213 -24 q 174 24 179 3 l 35 579 z "},"x":{"ha":500,"x_min":28,"x_max":474,"o":"m 65 -15 q 35 21 42 -4 q 40 69 28 46 l 179 322 l 46 564 q 40 612 33 588 q 71 649 47 636 q 118 654 93 661 q 156 625 143 647 l 250 451 l 346 625 q 383 654 358 647 q 431 649 407 661 q 461 612 454 636 q 456 564 468 588 l 322 322 l 461 69 q 467 21 474 46 q 436 -15 460 -4 q 388 -22 413 -28 q 351 8 364 -15 l 250 192 l 150 8 q 113 -22 138 -15 q 65 -15 88 -28 z "},"y":{"ha":513,"x_min":7,"x_max":490,"o":"m 69 -301 q 25 -283 43 -301 q 7 -239 7 -265 q 25 -194 7 -212 q 69 -176 43 -176 q 116 -161 96 -176 q 143 -122 136 -146 l 190 39 l 29 576 q 35 624 22 601 q 72 654 47 647 q 119 649 96 661 q 150 613 142 638 l 256 257 l 363 613 q 393 649 369 638 q 440 654 417 661 q 478 624 465 647 q 483 576 490 601 l 315 21 l 263 -158 q 190 -261 243 -224 q 69 -301 135 -301 z "},"z":{"ha":478,"x_min":38,"x_max":440,"o":"m 38 44 q 43 72 38 61 q 135 251 90 165 q 173 326 153 288 q 212 401 193 365 q 247 470 231 438 q 275 526 263 503 l 100 526 q 56 544 74 526 q 38 589 38 563 q 56 633 38 615 q 100 651 74 651 l 378 651 q 431 621 413 651 q 440 589 440 604 q 433 560 440 576 q 342 381 386 467 q 303 306 322 344 q 265 231 283 267 q 230 163 246 194 q 201 107 214 131 l 378 107 q 422 89 403 107 q 440 44 440 71 q 422 0 440 18 q 378 -18 403 -18 l 100 -18 q 46 11 64 -18 q 38 44 38 28 z "},"t":{"ha":411,"x_min":15,"x_max":390,"o":"m 78 526 q 33 544 51 526 q 15 589 15 563 q 33 633 15 615 q 78 651 51 651 l 126 651 l 126 872 q 144 917 126 899 q 189 935 163 935 q 233 917 215 935 q 251 872 251 899 l 251 651 l 328 651 q 372 633 354 651 q 390 589 390 615 q 372 544 390 563 q 328 526 354 526 l 251 526 l 251 178 q 274 124 251 146 q 328 101 296 101 q 372 83 354 101 q 390 39 390 65 q 372 -6 390 13 q 328 -24 354 -24 q 249 -8 286 -24 q 185 35 213 8 q 142 99 158 63 q 126 178 126 136 l 126 526 l 78 526 l 78 526 z "},"s":{"ha":457,"x_min":40,"x_max":415,"o":"m 265 119 q 288 174 290 140 q 260 225 285 208 l 129 315 q 74 377 94 340 q 50 457 53 414 q 63 540 47 500 q 111 608 79 579 q 183 649 143 636 q 267 654 224 661 q 343 624 308 647 q 400 563 378 600 q 406 515 413 540 q 376 478 400 490 q 329 472 354 465 q 292 500 304 478 q 247 531 276 526 q 196 515 219 536 q 175 465 172 496 q 201 418 178 436 l 331 328 q 388 264 367 301 q 413 182 410 226 q 399 97 415 138 q 350 26 383 57 q 276 -15 318 -3 q 190 -21 235 -28 q 110 10 146 -14 q 53 74 75 35 q 47 121 40 96 q 75 158 53 146 q 124 165 99 171 q 161 136 149 158 q 210 103 176 107 q 265 119 240 97 z "},"r":{"ha":415,"x_min":76,"x_max":414,"o":"m 139 -24 q 94 -6 113 -24 q 76 39 76 13 l 76 589 q 94 633 76 615 q 139 651 113 651 l 278 651 q 378 625 329 651 q 408 587 401 611 q 401 539 414 563 q 363 510 388 517 q 315 517 339 503 q 278 526 296 526 l 201 526 l 201 39 q 183 -6 201 13 q 139 -24 165 -24 z "},"q":{"ha":539,"x_min":60,"x_max":463,"o":"m 261 -18 q 183 -2 219 -18 q 119 41 146 14 q 76 105 92 68 q 60 183 60 142 l 60 450 q 76 528 60 492 q 119 592 92 565 q 183 635 146 619 q 261 651 219 651 l 400 651 q 444 633 426 651 q 463 589 463 615 l 463 -239 q 444 -283 463 -265 q 400 -301 426 -301 q 356 -283 374 -301 q 338 -239 338 -265 l 338 -18 l 261 -18 m 261 526 q 207 504 229 526 q 185 450 185 482 l 185 183 q 207 129 185 151 q 261 107 229 107 l 338 107 l 338 526 l 261 526 z "},"p":{"ha":539,"x_min":76,"x_max":479,"o":"m 139 -301 q 94 -283 113 -301 q 76 -239 76 -265 l 76 589 q 94 633 76 615 q 139 651 113 651 l 278 651 q 356 635 319 651 q 420 592 393 619 q 463 528 447 565 q 479 450 479 492 l 479 183 q 463 105 479 142 q 420 41 447 68 q 356 -2 393 14 q 278 -18 319 -18 l 201 -18 l 201 -239 q 183 -283 201 -265 q 139 -301 165 -301 m 354 450 q 332 504 354 482 q 278 526 310 526 l 201 526 l 201 107 l 278 107 q 332 129 310 107 q 354 183 354 151 l 354 450 z "},"o":{"ha":522,"x_min":60,"x_max":463,"o":"m 261 -24 q 183 -8 219 -24 q 119 35 146 8 q 76 99 92 63 q 60 178 60 136 l 60 456 q 76 534 60 497 q 119 598 92 571 q 183 641 146 625 q 261 657 219 657 q 340 641 303 657 q 403 598 376 625 q 447 534 431 571 q 463 456 463 497 l 463 178 q 447 99 463 136 q 403 35 431 63 q 340 -8 376 8 q 261 -24 303 -24 m 261 532 q 207 510 229 532 q 185 456 185 488 l 185 178 q 207 124 185 146 q 261 101 229 101 q 315 124 293 101 q 338 178 338 146 l 338 456 q 315 510 338 488 q 261 532 293 532 z "},"n":{"ha":544,"x_min":76,"x_max":479,"o":"m 139 -24 q 94 -6 113 -24 q 76 39 76 13 l 76 589 q 94 633 76 615 q 139 651 113 651 l 278 651 q 356 635 319 651 q 420 592 393 619 q 463 528 447 565 q 479 450 479 492 l 479 39 q 460 -6 479 13 q 417 -24 442 -24 q 372 -6 390 -24 q 354 39 354 13 l 354 450 q 332 504 354 482 q 278 526 310 526 l 201 526 l 201 39 q 183 -6 201 13 q 139 -24 164 -24 z "},"m":{"ha":822,"x_min":76,"x_max":757,"o":"m 201 526 l 201 39 q 183 -6 201 13 q 139 -24 164 -24 q 94 -6 113 -24 q 76 39 76 13 l 76 589 q 94 633 76 615 q 139 651 113 651 l 556 651 q 633 635 597 651 q 697 592 669 619 q 741 528 725 565 q 757 450 757 492 l 757 39 q 738 -6 757 13 q 694 -24 719 -24 q 650 -6 668 -24 q 632 39 632 13 l 632 450 q 610 504 632 482 q 556 526 588 526 l 479 526 l 479 39 q 460 -6 479 13 q 417 -24 442 -24 q 372 -6 390 -24 q 354 39 354 13 l 354 526 l 201 526 z "},"l":{"ha":278,"x_min":72,"x_max":258,"o":"m 160 -15 q 96 49 119 8 q 72 135 72 89 l 72 872 q 91 917 72 899 q 135 935 110 935 q 179 917 161 935 q 197 872 197 899 l 197 135 q 222 93 197 107 q 251 55 244 79 q 244 7 258 31 q 207 -22 232 -15 q 160 -15 182 -28 z "},"k":{"ha":528,"x_min":76,"x_max":511,"o":"m 499 69 q 504 21 511 46 q 474 -15 497 -4 q 426 -22 451 -28 q 389 8 401 -15 l 243 275 l 201 229 l 201 39 q 183 -6 201 13 q 139 -24 165 -24 q 94 -6 113 -24 q 76 39 76 13 l 76 872 q 94 917 76 899 q 139 935 113 935 q 183 917 165 935 q 201 872 201 899 l 201 417 l 397 636 q 441 657 415 656 q 486 640 467 658 q 507 598 506 624 q 490 553 508 572 l 331 374 l 499 69 z "},"j":{"ha":289,"x_min":-51,"x_max":226,"o":"m 150 726 q 96 749 118 726 q 74 803 74 771 q 96 857 74 835 q 150 879 118 879 q 204 857 182 879 q 226 803 226 835 q 204 749 226 771 q 150 726 182 726 m 11 -301 q -33 -283 -15 -301 q -51 -239 -51 -265 q -33 -194 -51 -212 q 11 -176 -15 -176 q 65 -154 43 -176 q 88 -100 88 -132 l 88 594 q 106 639 88 621 q 150 657 124 657 q 194 639 176 657 q 213 594 213 621 l 213 -100 q 197 -178 213 -142 q 153 -242 181 -215 q 90 -285 126 -269 q 11 -301 53 -301 z "},"i":{"ha":278,"x_min":63,"x_max":215,"o":"m 139 726 q 85 749 107 726 q 63 803 63 771 q 85 857 63 835 q 139 879 107 879 q 193 857 171 879 q 215 803 215 835 q 193 749 215 771 q 139 726 171 726 m 201 39 q 183 -6 201 13 q 139 -24 165 -24 q 94 -6 113 -24 q 76 39 76 13 l 76 594 q 94 639 76 621 q 139 657 113 657 q 183 639 165 657 q 201 594 201 621 l 201 39 z "},"h":{"ha":544,"x_min":76,"x_max":479,"o":"m 139 -24 q 94 -6 113 -24 q 76 39 76 13 l 76 872 q 94 917 76 899 q 139 935 113 935 q 183 917 165 935 q 201 872 201 899 l 201 651 l 278 651 q 356 635 319 651 q 420 592 393 619 q 463 528 447 565 q 479 450 479 492 l 479 39 q 461 -6 479 13 q 417 -24 443 -24 q 372 -6 390 -24 q 354 39 354 13 l 354 450 q 332 504 354 482 q 278 526 310 526 l 201 526 l 201 39 q 183 -6 201 13 q 139 -24 165 -24 z "},"g":{"ha":533,"x_min":60,"x_max":463,"o":"m 261 -18 q 183 -2 219 -18 q 119 41 146 14 q 76 105 92 68 q 60 183 60 142 l 60 450 q 76 528 60 492 q 119 592 92 565 q 183 635 146 619 q 261 651 219 651 l 400 651 q 444 633 426 651 q 463 589 463 615 l 463 -100 q 429 -212 463 -162 q 339 -286 396 -262 q 222 -298 281 -310 q 119 -243 163 -286 q 100 -199 100 -224 q 119 -154 100 -174 q 163 -135 138 -135 q 207 -154 189 -135 q 247 -175 224 -171 q 290 -171 269 -179 q 325 -142 313 -161 q 338 -100 338 -124 l 338 -18 l 261 -18 m 261 526 q 207 504 229 526 q 185 450 185 482 l 185 183 q 207 129 185 151 q 261 107 229 107 l 338 107 l 338 526 l 261 526 z "},"f":{"ha":411,"x_min":15,"x_max":390,"o":"m 78 526 q 33 544 51 526 q 15 589 15 563 q 33 633 15 615 q 78 651 51 651 l 126 651 l 126 733 q 142 812 126 775 q 185 876 158 849 q 249 919 213 903 q 328 935 286 935 q 372 917 354 935 q 390 872 390 899 q 372 828 390 846 q 328 810 354 810 q 274 788 296 810 q 251 733 251 765 l 251 651 l 328 651 q 372 633 354 651 q 390 589 390 615 q 372 544 390 563 q 328 526 354 526 l 251 526 l 251 39 q 233 -6 251 13 q 189 -24 215 -24 q 144 -6 163 -24 q 126 39 126 13 l 126 526 l 78 526 l 78 526 z "},"e":{"ha":511,"x_min":60,"x_max":463,"o":"m 185 -8 q 93 65 126 15 q 60 178 60 115 l 60 456 q 76 534 60 497 q 119 598 92 571 q 183 641 146 625 q 261 657 219 657 q 340 641 303 657 q 403 598 376 625 q 447 534 431 571 q 463 456 463 497 l 463 317 q 444 272 463 290 q 400 254 426 254 l 185 254 l 185 178 q 197 135 185 154 q 232 107 210 117 q 276 103 254 99 q 315 124 299 107 q 359 143 333 143 q 404 124 385 143 q 422 79 422 104 q 404 35 422 54 q 301 -20 360 -8 q 185 -8 242 -32 m 261 532 q 207 510 229 532 q 185 456 185 488 l 185 379 l 338 379 l 338 456 q 315 510 338 488 q 261 532 293 532 z "},"d":{"ha":539,"x_min":60,"x_max":463,"o":"m 261 -18 q 183 -2 219 -18 q 119 41 146 14 q 76 105 92 68 q 60 183 60 142 l 60 450 q 76 528 60 492 q 119 592 92 565 q 183 635 146 619 q 261 651 219 651 l 338 651 l 338 872 q 356 917 338 899 q 400 935 374 935 q 444 917 426 935 q 463 872 463 899 l 463 44 q 444 0 463 18 q 400 -18 426 -18 l 261 -18 m 261 526 q 207 504 229 526 q 185 450 185 482 l 185 183 q 207 129 185 151 q 261 107 229 107 l 338 107 l 338 526 l 261 526 z "},"c":{"ha":456,"x_min":60,"x_max":422,"o":"m 183 -8 q 93 65 126 15 q 60 178 60 115 l 60 456 q 93 568 60 518 q 183 642 126 618 q 301 653 242 665 q 403 597 360 642 q 422 553 422 579 q 403 510 422 528 q 359 490 385 490 q 315 510 333 490 q 276 531 299 526 q 232 526 253 535 q 197 498 210 517 q 185 456 185 479 l 185 178 q 197 135 185 154 q 232 107 210 117 q 276 103 253 99 q 315 124 299 107 q 359 143 333 143 q 403 124 385 143 q 422 79 422 104 q 403 35 422 54 q 301 -20 360 -8 q 183 -8 242 -32 z "},"b":{"ha":539,"x_min":76,"x_max":479,"o":"m 139 -18 q 94 0 113 -18 q 76 44 76 18 l 76 872 q 94 917 76 899 q 139 935 113 935 q 183 917 165 935 q 201 872 201 899 l 201 651 l 278 651 q 356 635 319 651 q 420 592 393 619 q 463 528 447 565 q 479 450 479 492 l 479 183 q 463 105 479 142 q 420 41 447 68 q 356 -2 393 14 q 278 -18 319 -18 l 139 -18 m 201 526 l 201 107 l 278 107 q 332 129 310 107 q 354 183 354 151 l 354 450 q 332 504 354 482 q 278 526 310 526 l 201 526 z "},"a":{"ha":489,"x_min":21,"x_max":424,"o":"m 299 385 l 299 458 q 286 499 299 481 q 253 526 274 518 q 210 531 232 535 q 172 510 188 526 q 128 492 154 492 q 85 510 103 492 q 65 554 65 529 q 85 599 65 579 q 186 653 128 642 q 300 642 244 665 q 390 569 357 618 q 424 458 424 519 l 424 44 q 406 0 424 18 q 361 -18 388 -18 l 222 -18 q 144 -2 181 -18 q 80 41 107 14 q 37 105 53 68 q 21 183 21 142 q 37 262 21 225 q 80 326 53 299 q 144 369 107 353 q 222 385 181 385 l 299 385 m 222 260 q 168 238 190 260 q 146 183 146 215 q 168 129 146 151 q 222 107 190 107 l 299 107 l 299 260 l 222 260 z "},".":{"ha":267,"x_min":53,"x_max":214,"o":"m 53 53 q 76 110 53 86 q 133 133 100 133 q 190 110 167 133 q 214 53 214 86 q 190 -4 214 19 q 133 -28 167 -28 q 76 -4 100 -28 q 53 53 53 19 z "},"@":{"ha":1061,"x_min":65,"x_max":996,"o":"m 860 769 q 961 619 926 703 q 996 442 996 535 l 996 183 q 980 105 996 142 q 937 41 964 68 q 873 -2 910 14 q 794 -18 836 -18 l 517 -18 q 438 -2 475 -18 q 374 41 401 14 q 331 105 347 68 q 315 183 315 142 q 331 262 315 225 q 374 326 347 299 q 438 369 401 353 q 517 385 475 385 l 593 385 l 593 458 q 581 499 593 481 q 546 526 568 517 q 502 530 525 535 q 463 510 479 525 q 418 491 443 490 q 374 510 393 492 q 356 555 356 529 q 375 599 356 581 q 477 653 418 640 q 593 642 536 665 q 644 613 621 631 q 683 569 667 594 q 710 516 701 544 q 718 458 718 488 l 718 107 l 794 107 q 849 129 826 107 q 871 183 871 151 l 871 442 q 846 572 871 510 q 772 682 821 633 q 662 756 724 731 q 531 782 600 782 q 401 756 463 782 q 290 682 339 731 q 216 572 242 633 q 190 442 190 510 l 190 192 q 216 60 190 122 q 290 -50 242 -1 q 401 -124 339 -99 q 531 -149 463 -149 l 683 -149 q 728 -167 710 -149 q 746 -211 746 -186 q 728 -256 746 -237 q 683 -274 710 -274 l 531 -274 q 353 -239 438 -274 q 201 -137 268 -204 q 100 13 135 -71 q 65 192 65 97 l 65 442 q 100 619 65 535 q 201 769 135 703 q 353 872 268 836 q 531 907 438 907 q 709 872 625 907 q 860 769 793 836 m 517 260 q 463 238 485 260 q 440 183 440 215 q 463 129 440 151 q 517 107 485 107 l 593 107 l 593 260 l 517 260 z "},"å":{"ha":489,"x_min":21,"x_max":424,"o":"m 383 817 q 344 722 383 761 q 250 683 306 683 q 156 722 194 683 q 117 817 117 761 q 156 911 117 872 q 250 950 194 950 q 344 911 306 950 q 383 817 383 872 m 217 817 q 226 793 217 803 q 250 783 236 783 q 274 793 264 783 q 283 817 283 803 q 274 840 283 831 q 250 850 264 850 q 226 840 236 850 q 217 817 217 831 m 299 385 l 299 458 q 286 499 299 481 q 253 526 274 518 q 210 531 232 535 q 174 510 189 526 q 128 492 154 492 q 85 510 103 492 q 65 554 65 529 q 85 599 65 579 q 186 653 128 642 q 301 642 244 665 q 390 569 357 618 q 424 458 424 519 l 424 44 q 406 0 424 18 q 361 -18 388 -18 l 222 -18 q 144 -2 181 -18 q 80 41 107 14 q 37 105 53 68 q 21 183 21 142 q 37 262 21 225 q 80 326 53 299 q 144 369 107 353 q 222 385 181 385 l 299 385 m 222 260 q 168 238 190 260 q 146 183 146 215 q 168 129 146 151 q 222 107 190 107 l 299 107 l 299 260 l 222 260 z "},"ö":{"ha":522,"x_min":60,"x_max":463,"o":"m 226 803 q 204 749 226 771 q 150 726 182 726 q 96 749 118 726 q 74 803 74 771 q 96 857 74 835 q 150 879 118 879 q 204 857 182 879 q 226 803 226 835 m 449 803 q 426 749 449 771 q 372 726 404 726 q 318 749 340 726 q 296 803 296 771 q 318 857 296 835 q 372 879 340 879 q 426 857 404 879 q 449 803 449 835 m 60 456 q 76 534 60 497 q 119 598 92 571 q 183 641 146 625 q 261 657 219 657 q 340 641 303 657 q 403 598 376 625 q 447 534 431 571 q 463 456 463 497 l 463 178 q 447 99 463 136 q 403 35 431 63 q 340 -8 376 8 q 261 -24 303 -24 q 183 -8 219 -24 q 119 35 146 8 q 76 99 92 63 q 60 178 60 136 l 60 456 m 261 532 q 207 510 229 532 q 185 456 185 488 l 185 178 q 207 124 185 146 q 261 101 229 101 q 315 124 293 101 q 338 178 338 146 l 338 456 q 315 510 338 488 q 261 532 293 532 z "},"Å":{"ha":600,"x_min":7,"x_max":593,"o":"m 438 1094 q 427 1042 438 1067 q 398 998 417 1017 q 354 968 379 979 q 300 957 329 957 q 247 968 272 957 q 203 998 222 979 q 174 1042 185 1017 q 164 1094 164 1067 q 203 1191 164 1151 q 300 1231 243 1231 q 398 1191 358 1231 q 438 1094 438 1151 m 271 1094 q 280 1073 271 1082 q 300 1064 289 1064 q 322 1073 313 1064 q 331 1094 331 1082 q 322 1115 331 1107 q 300 1124 313 1124 q 280 1115 289 1124 q 271 1094 271 1107 m 586 57 q 580 6 593 29 q 540 -25 567 -18 q 489 -19 513 -32 q 458 21 465 -6 q 447 61 453 38 q 434 108 442 81 q 418 167 426 135 l 182 167 q 165 108 172 135 q 153 61 158 81 q 142 21 147 38 q 111 -19 135 -6 q 60 -25 88 -32 q 20 6 33 -18 q 14 57 7 29 l 236 863 q 259 898 242 885 q 300 911 276 911 q 341 898 324 911 q 364 863 358 885 l 586 57 m 381 300 q 340 449 361 372 q 300 593 319 525 q 260 449 281 525 q 219 300 239 372 l 381 300 z "},"Ä":{"ha":600,"x_min":7,"x_max":593,"o":"m 411 1000 q 354 1024 378 1000 q 331 1081 331 1047 q 354 1138 331 1114 q 411 1161 378 1161 q 468 1138 444 1161 q 492 1081 492 1114 q 468 1024 492 1047 q 411 1000 444 1000 m 189 1161 q 246 1138 222 1161 q 269 1081 269 1114 q 246 1024 269 1047 q 189 1000 222 1000 q 132 1024 156 1000 q 108 1081 108 1047 q 132 1138 108 1114 q 189 1161 156 1161 m 586 57 q 580 6 593 29 q 540 -25 567 -18 q 489 -19 513 -32 q 458 21 465 -6 q 447 61 453 38 q 434 108 442 81 q 418 167 426 135 l 182 167 q 165 108 172 135 q 153 61 158 81 q 142 21 147 38 q 111 -19 135 -6 q 60 -25 88 -32 q 20 6 33 -18 q 14 57 7 29 l 236 863 q 259 898 242 885 q 300 911 276 911 q 341 898 324 911 q 364 863 358 885 l 586 57 m 381 300 q 340 449 361 372 q 300 593 319 525 q 260 449 281 525 q 219 300 239 372 l 381 300 z "},"Ö":{"ha":578,"x_min":56,"x_max":522,"o":"m 522 206 q 503 115 522 157 q 453 40 485 72 q 379 -10 422 8 q 289 -28 336 -28 q 198 -10 240 -28 q 124 40 156 8 q 74 115 92 72 q 56 206 56 157 l 56 678 q 74 769 56 726 q 124 843 92 811 q 198 893 156 875 q 289 911 240 911 q 379 893 336 911 q 453 843 422 875 q 503 769 485 811 q 522 678 522 726 l 522 206 m 289 106 q 359 135 329 106 q 389 206 389 164 l 389 678 q 359 749 389 719 q 289 778 329 778 q 218 749 247 778 q 189 678 189 719 l 189 206 q 218 135 189 164 q 289 106 247 106 m 319 1081 q 343 1138 319 1114 q 400 1161 367 1161 q 457 1138 433 1161 q 481 1081 481 1114 q 457 1024 481 1047 q 400 1000 433 1000 q 343 1024 367 1000 q 319 1081 319 1047 m 97 1081 q 121 1138 97 1114 q 178 1161 144 1161 q 235 1138 211 1161 q 258 1081 258 1114 q 235 1024 258 1047 q 178 1000 211 1000 q 121 1024 144 1000 q 97 1081 97 1047 z "},"ä":{"ha":489,"x_min":21,"x_max":438,"o":"m 299 385 l 299 458 q 286 499 299 481 q 253 526 274 518 q 210 531 232 535 q 172 510 189 526 q 128 492 154 492 q 85 510 103 492 q 65 554 65 529 q 85 599 65 579 q 186 653 128 642 q 301 642 244 665 q 390 569 357 618 q 424 458 424 519 l 424 44 q 406 0 424 18 q 361 -18 388 -18 l 222 -18 q 144 -2 181 -18 q 80 41 107 14 q 37 105 53 68 q 21 183 21 142 q 37 262 21 225 q 80 326 53 299 q 144 369 107 353 q 222 385 181 385 l 299 385 m 222 260 q 168 238 190 260 q 146 183 146 215 q 168 129 146 151 q 222 107 190 107 l 299 107 l 299 260 l 222 260 m 285 803 q 307 857 285 835 q 361 879 329 879 q 415 857 393 879 q 438 803 438 835 q 415 749 438 771 q 361 726 393 726 q 307 749 329 726 q 285 803 285 771 m 139 726 q 85 749 107 726 q 63 803 63 771 q 85 857 63 835 q 139 879 107 879 q 193 857 171 879 q 215 803 215 835 q 193 749 215 771 q 139 726 171 726 z "},"-":{"ha":578,"x_min":56,"x_max":522,"o":"m 122 333 q 75 353 94 333 q 56 400 56 372 q 75 447 56 428 q 122 467 94 467 l 456 467 q 503 447 483 467 q 522 400 522 428 q 503 353 522 372 q 456 333 483 333 l 122 333 l 122 333 z "},"ô":{"ha":522,"x_min":60,"x_max":463,"o":"m 171 703 q 129 690 151 688 q 92 713 107 693 q 79 754 76 732 q 101 792 82 776 l 226 889 q 261 900 242 900 q 296 889 281 900 l 421 792 q 442 754 439 776 q 431 713 446 732 q 393 690 415 693 q 351 703 371 688 q 319 728 335 715 q 290 751 306 739 q 261 774 275 763 q 232 751 247 763 q 203 728 217 739 q 171 703 188 715 m 60 456 q 76 534 60 497 q 119 598 92 571 q 183 641 146 625 q 261 657 219 657 q 340 641 303 657 q 403 598 376 625 q 447 534 431 571 q 463 456 463 497 l 463 178 q 447 99 463 136 q 403 35 431 63 q 340 -8 376 8 q 261 -24 303 -24 q 183 -8 219 -24 q 119 35 146 8 q 76 99 92 63 q 60 178 60 136 l 60 456 m 261 532 q 207 510 229 532 q 185 456 185 488 l 185 178 q 207 124 185 146 q 261 101 229 101 q 315 124 293 101 q 338 178 338 146 l 338 456 q 315 510 338 488 q 261 532 293 532 z "},"ó":{"ha":522,"x_min":60,"x_max":463,"o":"m 147 707 q 132 751 131 726 q 151 792 133 775 l 290 917 q 334 932 310 933 q 375 913 358 931 q 390 869 392 893 q 371 828 389 844 l 232 703 q 188 688 213 686 q 147 707 164 689 m 463 178 q 447 99 463 136 q 403 35 431 63 q 340 -8 376 8 q 261 -24 303 -24 q 183 -8 219 -24 q 119 35 146 8 q 76 99 92 63 q 60 178 60 136 l 60 456 q 76 534 60 497 q 119 598 92 571 q 183 641 146 625 q 261 657 219 657 q 340 641 303 657 q 403 598 376 625 q 447 534 431 571 q 463 456 463 497 l 463 178 m 261 101 q 315 124 293 101 q 338 178 338 146 l 338 456 q 315 510 338 488 q 261 532 293 532 q 207 510 229 532 q 185 456 185 488 l 185 178 q 207 124 185 146 q 261 101 229 101 z "},"ò":{"ha":522,"x_min":60,"x_max":463,"o":"m 151 828 q 132 869 133 844 q 147 913 131 893 q 188 932 164 931 q 231 917 213 933 l 369 792 q 390 751 389 775 q 375 707 390 726 q 334 688 358 689 q 290 703 310 686 l 151 828 m 60 456 q 76 534 60 497 q 119 598 92 571 q 183 641 146 625 q 261 657 219 657 q 340 641 303 657 q 403 598 376 625 q 447 534 431 571 q 463 456 463 497 l 463 178 q 447 99 463 136 q 403 35 431 63 q 340 -8 376 8 q 261 -24 303 -24 q 183 -8 219 -24 q 119 35 146 8 q 76 99 92 63 q 60 178 60 136 l 60 456 m 261 532 q 207 510 229 532 q 185 456 185 488 l 185 178 q 207 124 185 146 q 261 101 229 101 q 315 124 293 101 q 338 178 338 146 l 338 456 q 315 510 338 488 q 261 532 293 532 z "},"õ":{"ha":522,"x_min":60,"x_max":463,"o":"m 89 818 q 182 878 125 867 q 289 851 240 889 l 300 843 q 321 839 311 836 q 339 850 332 839 q 376 874 353 869 q 418 867 399 879 q 442 830 438 853 q 433 788 446 807 q 393 749 418 764 q 340 728 368 733 q 233 754 282 717 l 222 763 q 201 767 211 769 q 193 765 199 767 q 183 756 188 763 q 148 731 171 736 q 106 739 125 726 q 81 776 86 753 q 89 818 76 799 m 60 456 q 76 534 60 497 q 119 598 92 571 q 183 641 146 625 q 261 657 219 657 q 340 641 303 657 q 403 598 376 625 q 447 534 431 571 q 463 456 463 497 l 463 178 q 447 99 463 136 q 403 35 431 63 q 340 -8 376 8 q 261 -24 303 -24 q 183 -8 219 -24 q 119 35 146 8 q 76 99 92 63 q 60 178 60 136 l 60 456 m 261 532 q 207 510 229 532 q 185 456 185 488 l 185 178 q 207 124 185 146 q 261 101 229 101 q 315 124 293 101 q 338 178 338 146 l 338 456 q 315 510 338 488 q 261 532 293 532 z "},"ñ":{"ha":544,"x_min":76,"x_max":479,"o":"m 200 756 q 163 731 186 736 q 121 739 140 726 q 97 776 101 753 q 106 818 93 799 q 199 878 139 867 q 306 851 257 889 l 317 843 q 338 839 328 836 q 346 841 340 839 q 356 850 351 843 q 391 874 368 869 q 433 867 414 879 q 458 830 453 853 q 450 788 463 807 q 357 728 417 739 q 249 754 299 717 l 238 763 q 226 767 232 767 q 217 767 221 768 q 200 756 207 767 m 76 589 q 94 633 76 615 q 139 651 113 651 l 278 651 q 356 635 319 651 q 420 592 393 619 q 463 528 447 565 q 479 450 479 492 l 479 39 q 461 -6 479 13 q 417 -24 443 -24 q 372 -6 390 -24 q 354 39 354 13 l 354 450 q 332 504 354 482 q 278 526 310 526 l 201 526 l 201 39 q 183 -6 201 13 q 139 -24 165 -24 q 94 -6 113 -24 q 76 39 76 13 l 76 589 z "},"ð":{"ha":522,"x_min":60,"x_max":463,"o":"m 60 456 q 76 534 60 497 q 119 598 92 571 q 183 641 146 625 q 261 657 219 657 q 276 656 268 657 q 290 654 283 656 q 274 684 282 669 q 254 713 265 699 l 211 683 q 167 675 190 669 q 128 700 143 681 q 119 744 114 721 q 144 783 125 768 l 171 800 q 156 810 164 806 q 142 819 149 815 q 115 860 119 835 q 125 907 110 885 q 164 934 139 929 q 211 924 189 939 q 246 899 229 913 q 278 872 263 886 l 311 894 q 356 903 332 908 q 394 878 381 897 q 403 833 408 857 q 378 794 397 808 l 358 782 q 378 752 369 767 q 396 721 388 738 q 445 593 428 660 q 463 456 463 526 l 463 178 q 447 99 463 136 q 403 35 431 63 q 340 -8 376 8 q 261 -24 303 -24 q 183 -8 219 -24 q 119 35 146 8 q 76 99 92 63 q 60 178 60 136 l 60 456 m 338 456 q 315 510 338 488 q 261 532 293 532 q 207 510 229 532 q 185 456 185 488 l 185 178 q 207 124 185 146 q 261 101 229 101 q 315 124 293 101 q 338 178 338 146 l 338 456 z "},"ï":{"ha":278,"x_min":-49,"x_max":326,"o":"m 104 803 q 82 749 104 771 q 28 726 60 726 q -26 749 -4 726 q -49 803 -49 771 q -26 857 -49 835 q 28 879 -4 879 q 82 857 60 879 q 104 803 104 835 m 250 726 q 196 749 218 726 q 174 803 174 771 q 196 857 174 835 q 250 879 218 879 q 304 857 282 879 q 326 803 326 835 q 304 749 326 771 q 250 726 282 726 m 201 39 q 183 -6 201 13 q 139 -24 165 -24 q 94 -6 113 -24 q 76 39 76 13 l 76 594 q 94 639 76 621 q 139 657 113 657 q 183 639 165 657 q 201 594 201 621 l 201 39 z "},"î":{"ha":278,"x_min":-44,"x_max":324,"o":"m -29 713 q -42 754 -44 732 q -19 792 -39 776 l 106 889 q 140 900 121 900 q 174 889 158 900 l 299 792 q 321 754 318 776 q 310 713 324 732 q 272 690 294 693 q 231 703 249 688 q 199 728 214 715 q 169 751 185 739 q 140 774 154 763 q 110 751 126 763 q 81 728 94 739 q 49 703 65 715 q 8 690 31 688 q -29 713 -15 693 m 203 39 q 184 -6 203 13 q 140 -24 165 -24 q 96 -6 114 -24 q 78 39 78 13 l 78 594 q 96 639 78 621 q 140 657 114 657 q 184 639 165 657 q 203 594 203 621 l 203 39 z "},"í":{"ha":278,"x_min":36,"x_max":296,"o":"m 139 -24 q 94 -6 113 -24 q 76 39 76 13 l 76 594 q 94 639 76 621 q 139 657 113 657 q 183 639 164 657 q 201 594 201 621 l 201 39 q 183 -6 201 13 q 139 -24 164 -24 m 196 917 q 240 932 215 933 q 279 913 264 931 q 295 869 296 893 q 275 828 294 844 l 136 703 q 94 688 118 686 q 53 707 69 689 q 37 751 36 726 q 57 792 38 775 l 196 917 z "},"ì":{"ha":278,"x_min":-18,"x_max":242,"o":"m 225 707 q 184 688 208 689 q 142 703 160 686 l 3 828 q -17 869 -17 844 q -1 913 -18 893 q 39 932 14 931 q 82 917 64 933 l 221 792 q 241 751 240 775 q 225 707 242 726 m 76 594 q 95 639 76 621 q 139 657 114 657 q 183 639 165 657 q 201 594 201 621 l 201 39 q 183 -6 201 13 q 139 -24 165 -24 q 95 -6 114 -24 q 76 39 76 13 l 76 594 z "},"ë":{"ha":511,"x_min":60,"x_max":463,"o":"m 60 456 q 76 534 60 497 q 119 598 92 571 q 183 641 146 625 q 261 657 219 657 q 340 641 303 657 q 403 598 376 625 q 447 534 431 571 q 463 456 463 497 l 463 317 q 444 272 463 290 q 400 254 426 254 l 185 254 l 185 178 q 198 135 185 154 q 232 107 211 117 q 276 103 254 99 q 315 124 299 107 q 360 143 335 143 q 404 124 385 143 q 422 79 422 104 q 404 35 422 54 q 301 -20 360 -8 q 185 -8 242 -32 q 94 65 128 15 q 60 178 60 115 l 60 456 m 261 532 q 207 510 229 532 q 185 456 185 488 l 185 379 l 338 379 l 338 456 q 315 510 338 488 q 261 532 293 532 m 226 803 q 204 749 226 771 q 150 726 182 726 q 96 749 118 726 q 74 803 74 771 q 96 857 74 835 q 150 879 118 879 q 204 857 182 879 q 226 803 226 835 m 372 726 q 318 749 340 726 q 296 803 296 771 q 318 857 296 835 q 372 879 340 879 q 426 857 404 879 q 449 803 449 835 q 426 749 449 771 q 372 726 404 726 z "},"ı":{"ha":278,"x_min":76,"x_max":201,"o":"m 139 -24 q 95 -6 114 -24 q 76 39 76 13 l 76 594 q 95 639 76 621 q 139 657 114 657 q 183 639 165 657 q 201 594 201 621 l 201 39 q 183 -6 201 13 q 139 -24 165 -24 z "}," ":{"ha":267,"x_min":0,"x_max":0,"o":""}," ":{"ha":267,"x_min":0,"x_max":0,"o":""},"ø":{"ha":536,"x_min":10,"x_max":526,"o":"m 67 456 q 83 534 67 497 q 126 598 99 571 q 190 641 153 625 q 268 657 226 657 q 378 624 329 657 l 411 679 q 447 708 424 701 q 492 701 471 714 q 520 665 514 689 q 514 619 526 642 l 457 524 q 469 456 469 492 l 469 178 q 453 99 469 136 q 410 35 438 63 q 347 -8 383 8 q 268 -24 310 -24 q 209 -15 238 -24 q 157 10 181 -6 l 125 -47 q 89 -74 113 -68 q 43 -68 65 -81 q 16 -32 22 -56 q 22 13 10 -8 l 79 110 q 67 178 67 140 l 67 456 m 268 101 q 322 124 300 101 q 344 178 344 146 l 344 329 l 221 118 q 268 101 239 101 m 268 532 q 214 510 236 532 q 192 456 192 488 l 192 304 l 315 515 q 268 532 296 532 z "},"ú":{"ha":544,"x_min":65,"x_max":468,"o":"m 238 703 q 194 688 218 686 q 154 707 169 689 q 138 751 138 726 q 158 792 139 775 l 297 917 q 340 932 315 933 q 381 913 364 931 q 397 869 397 893 q 376 828 396 844 l 238 703 m 267 -18 q 188 -2 225 -18 q 124 41 151 14 q 81 105 97 68 q 65 183 65 142 l 65 594 q 84 639 65 621 q 128 657 103 657 q 172 639 154 657 q 190 594 190 621 l 190 183 q 213 129 190 151 q 267 107 235 107 l 343 107 l 343 594 q 362 639 343 621 q 406 657 381 657 q 450 639 432 657 q 468 594 468 621 l 468 44 q 450 0 468 18 q 406 -18 432 -18 l 267 -18 z "},"ù":{"ha":544,"x_min":65,"x_max":468,"o":"m 376 792 q 396 751 394 775 q 381 707 397 726 q 340 688 364 689 q 297 703 315 686 l 158 828 q 138 869 139 844 q 154 913 138 893 q 194 932 169 931 q 238 917 218 933 l 376 792 m 406 657 q 450 639 432 657 q 468 594 468 621 l 468 44 q 450 0 468 18 q 406 -18 432 -18 l 267 -18 q 188 -2 225 -18 q 124 41 151 14 q 81 105 97 68 q 65 183 65 142 l 65 594 q 83 639 65 621 q 128 657 101 657 q 172 639 154 657 q 190 594 190 621 l 190 183 q 213 129 190 151 q 267 107 235 107 l 343 107 l 343 594 q 361 639 343 621 q 406 657 379 657 z "},"û":{"ha":544,"x_min":65,"x_max":468,"o":"m 176 703 q 135 690 158 688 q 97 713 113 693 q 86 754 83 732 q 108 792 89 776 l 233 889 q 267 900 249 900 q 301 889 286 900 l 426 792 q 449 754 446 776 q 436 713 451 732 q 399 690 422 693 q 358 703 376 688 q 326 728 342 715 q 297 751 313 739 q 267 774 281 763 q 238 751 253 763 q 208 728 222 739 q 176 703 193 715 m 65 594 q 84 639 65 621 q 128 657 103 657 q 172 639 154 657 q 190 594 190 621 l 190 183 q 213 129 190 151 q 267 107 235 107 l 343 107 l 343 594 q 362 639 343 621 q 406 657 381 657 q 450 639 432 657 q 468 594 468 621 l 468 44 q 450 0 468 18 q 406 -18 432 -18 l 267 -18 q 188 -2 225 -18 q 124 41 151 14 q 81 105 97 68 q 65 183 65 142 l 65 594 z "},"ü":{"ha":544,"x_min":65,"x_max":468,"o":"m 156 726 q 101 749 124 726 q 79 803 79 771 q 101 857 79 835 q 156 879 124 879 q 210 857 188 879 q 232 803 232 835 q 210 749 232 771 q 156 726 188 726 m 454 803 q 432 749 454 771 q 378 726 410 726 q 324 749 346 726 q 301 803 301 771 q 324 857 301 835 q 378 879 346 879 q 432 857 410 879 q 454 803 454 835 m 65 594 q 84 639 65 621 q 128 657 103 657 q 172 639 154 657 q 190 594 190 621 l 190 183 q 213 129 190 151 q 267 107 235 107 l 343 107 l 343 594 q 362 639 343 621 q 406 657 381 657 q 450 639 432 657 q 468 594 468 621 l 468 44 q 450 0 468 18 q 406 -18 432 -18 l 267 -18 q 189 -2 225 -18 q 125 41 153 14 q 81 105 97 68 q 65 183 65 142 l 65 594 z "},"ý":{"ha":513,"x_min":7,"x_max":490,"o":"m 143 707 q 127 751 126 726 q 147 792 128 775 l 286 917 q 330 932 306 933 q 369 913 354 931 q 385 869 386 893 q 365 828 385 844 l 226 703 q 184 688 208 686 q 143 707 160 689 m 69 -176 q 116 -161 96 -176 q 143 -122 136 -146 l 192 39 l 29 576 q 35 624 22 601 q 72 654 47 647 q 119 649 96 661 q 150 613 143 638 l 257 257 l 363 613 q 394 649 371 638 q 440 654 417 661 q 478 624 465 647 q 483 576 490 601 l 317 21 l 263 -158 q 190 -261 243 -224 q 69 -301 138 -301 q 25 -283 43 -301 q 7 -239 7 -265 q 25 -194 7 -212 q 69 -176 43 -176 z "},"þ":{"ha":539,"x_min":76,"x_max":479,"o":"m 201 -239 q 183 -283 201 -265 q 139 -301 165 -301 q 94 -283 113 -301 q 76 -239 76 -265 l 76 872 q 94 917 76 899 q 139 935 113 935 q 183 917 165 935 q 201 872 201 899 l 201 657 l 278 657 q 356 641 319 657 q 420 598 393 625 q 463 534 447 571 q 479 456 479 497 l 479 178 q 463 99 479 136 q 420 35 447 63 q 356 -8 393 8 q 278 -24 319 -24 l 201 -24 l 201 -239 m 201 532 l 201 101 l 278 101 q 332 124 310 101 q 354 178 354 146 l 354 456 q 332 510 354 488 q 278 532 310 532 l 201 532 z "},"ê":{"ha":511,"x_min":60,"x_max":463,"o":"m 185 254 l 185 178 q 198 135 185 154 q 232 107 211 117 q 276 103 254 99 q 315 124 299 107 q 360 143 335 143 q 404 124 385 143 q 422 79 422 104 q 404 35 422 54 q 301 -20 360 -8 q 185 -8 242 -32 q 93 65 126 15 q 60 178 60 115 l 60 456 q 76 534 60 497 q 119 598 92 571 q 183 641 146 625 q 261 657 219 657 q 340 641 303 657 q 403 598 376 625 q 447 534 431 571 q 463 456 463 497 l 463 317 q 444 272 463 290 q 400 254 426 254 l 185 254 m 261 532 q 207 510 229 532 q 185 456 185 488 l 185 379 l 338 379 l 338 456 q 315 510 338 488 q 261 532 293 532 m 171 703 q 130 690 153 688 q 92 713 107 693 q 81 754 78 732 q 101 792 83 776 l 226 889 q 261 900 242 900 q 296 889 281 900 l 421 792 q 443 754 440 776 q 431 713 446 732 q 394 690 417 693 q 351 703 371 688 q 319 728 335 715 q 290 751 306 739 q 261 774 275 763 q 232 751 247 763 q 203 728 217 739 q 171 703 188 715 z "},"è":{"ha":511,"x_min":60,"x_max":463,"o":"m 404 35 q 301 -20 360 -8 q 185 -8 242 -32 q 93 65 126 15 q 60 178 60 115 l 60 456 q 76 534 60 497 q 119 598 92 571 q 183 641 146 625 q 261 657 219 657 q 340 641 303 657 q 403 598 376 625 q 447 534 431 571 q 463 456 463 497 l 463 317 q 444 272 463 290 q 400 254 426 254 l 185 254 l 185 178 q 198 135 185 154 q 232 107 211 117 q 276 103 254 99 q 315 124 299 107 q 360 143 335 143 q 404 124 385 143 q 422 79 422 104 q 404 35 422 54 m 261 532 q 207 510 229 532 q 185 456 185 488 l 185 379 l 338 379 l 338 456 q 315 510 338 488 q 261 532 293 532 m 371 792 q 390 751 389 775 q 375 707 392 726 q 334 688 358 689 q 292 703 310 686 l 153 828 q 133 869 133 844 q 147 913 132 893 q 188 932 164 931 q 232 917 213 933 l 371 792 z "},"ç":{"ha":460,"x_min":60,"x_max":422,"o":"m 185 642 q 301 653 242 665 q 404 597 360 642 q 422 553 422 579 q 404 510 422 528 q 360 490 385 490 q 315 510 335 490 q 276 531 299 526 q 232 526 254 535 q 197 498 210 517 q 185 456 185 479 l 185 178 q 197 135 185 154 q 232 107 210 117 q 260 101 244 101 l 261 101 l 263 101 q 315 124 293 101 q 360 143 335 143 q 404 124 385 143 q 422 79 422 104 q 404 35 422 54 q 324 -14 368 1 l 324 -46 q 301 -133 324 -93 q 238 -197 278 -174 q 190 -203 214 -210 q 151 -174 165 -197 q 145 -126 139 -151 q 175 -89 151 -101 q 199 -46 199 -72 l 199 -14 q 192 -11 196 -12 q 185 -8 188 -10 q 93 65 126 15 q 60 178 60 115 l 60 456 q 93 568 60 518 q 185 642 126 618 z "},"é":{"ha":511,"x_min":60,"x_max":463,"o":"m 185 -8 q 93 65 126 15 q 60 178 60 115 l 60 456 q 76 534 60 497 q 119 598 92 571 q 183 641 146 625 q 261 657 219 657 q 340 641 303 657 q 403 598 376 625 q 447 534 431 571 q 463 456 463 497 l 463 317 q 444 272 463 290 q 400 254 426 254 l 185 254 l 185 178 q 198 135 185 154 q 232 107 211 117 q 276 103 254 99 q 315 124 299 107 q 360 143 335 143 q 404 124 385 143 q 422 79 422 104 q 404 35 422 54 q 301 -20 360 -8 q 185 -8 242 -32 m 261 532 q 207 510 229 532 q 185 456 185 488 l 185 379 l 338 379 l 338 456 q 315 510 338 488 q 261 532 293 532 m 292 917 q 334 932 310 933 q 375 913 358 931 q 390 869 392 893 q 371 828 389 844 l 232 703 q 188 688 213 686 q 147 707 164 689 q 133 751 132 726 q 153 792 133 775 l 292 917 z "},"æ":{"ha":751,"x_min":14,"x_max":703,"o":"m 300 379 l 300 456 q 287 498 300 479 q 253 526 274 517 q 208 531 231 535 q 169 510 186 526 q 125 490 150 490 q 81 510 100 490 q 63 553 63 528 q 81 597 63 579 q 184 653 125 642 q 300 642 243 665 q 363 601 335 628 q 426 642 390 628 q 501 657 461 657 q 580 641 543 657 q 644 598 617 625 q 687 534 671 571 q 703 456 703 497 l 703 317 q 685 272 703 290 q 640 254 667 254 l 425 254 l 425 178 q 438 135 425 154 q 472 107 450 117 q 516 103 493 99 q 556 124 539 107 q 599 143 574 143 q 643 124 625 143 q 663 79 663 104 q 643 35 663 54 q 541 -20 600 -8 q 424 -8 482 -32 q 363 32 388 6 q 300 -8 335 6 q 184 -20 243 -32 q 81 35 125 -8 q 26 138 38 79 q 38 254 14 197 q 111 346 61 313 q 224 379 161 379 l 300 379 m 300 254 l 224 254 q 181 242 200 254 q 153 207 161 229 q 148 163 143 185 q 169 124 153 140 q 208 103 186 107 q 253 107 231 99 q 287 135 274 117 q 300 178 300 154 l 300 254 m 425 379 l 578 379 l 578 456 q 556 510 578 488 q 501 532 533 532 q 447 510 469 532 q 425 456 425 488 l 425 379 z "},"ã":{"ha":489,"x_min":21,"x_max":435,"o":"m 222 -18 q 144 -2 181 -18 q 80 41 107 14 q 37 105 53 68 q 21 183 21 142 q 37 262 21 225 q 80 326 53 299 q 144 369 107 353 q 222 385 181 385 l 299 385 l 299 458 q 286 499 299 481 q 253 526 274 518 q 210 531 232 535 q 172 510 189 526 q 128 492 154 492 q 85 510 103 492 q 65 554 65 529 q 85 599 65 579 q 186 653 128 642 q 301 642 244 665 q 390 569 357 618 q 424 458 424 519 l 424 44 q 406 0 424 18 q 361 -18 388 -18 l 222 -18 m 222 260 q 168 238 190 260 q 146 183 146 215 q 168 129 146 151 q 222 107 190 107 l 299 107 l 299 260 l 222 260 m 328 850 q 364 874 342 869 q 406 867 386 879 q 430 830 425 853 q 422 788 435 807 q 329 728 389 739 q 222 754 271 717 l 211 763 q 190 767 200 769 q 182 765 188 767 q 172 756 176 763 q 136 731 158 736 q 94 739 114 726 q 70 776 75 753 q 78 818 65 799 q 171 878 111 867 q 278 851 229 889 l 289 843 q 310 839 300 836 q 318 841 313 839 q 328 850 324 843 z "},"â":{"ha":489,"x_min":21,"x_max":435,"o":"m 299 385 l 299 458 q 286 499 299 481 q 253 526 274 518 q 210 531 232 535 q 172 510 189 526 q 128 492 154 492 q 85 510 103 492 q 65 554 65 529 q 85 599 65 579 q 186 653 128 642 q 301 642 244 665 q 390 569 357 618 q 424 458 424 519 l 424 44 q 406 0 424 18 q 361 -18 388 -18 l 222 -18 q 144 -2 181 -18 q 80 41 107 14 q 37 105 53 68 q 21 183 21 142 q 37 262 21 225 q 80 326 53 299 q 144 369 107 353 q 222 385 181 385 l 299 385 m 222 260 q 168 238 190 260 q 146 183 146 215 q 168 129 146 151 q 222 107 190 107 l 299 107 l 299 260 l 222 260 m 410 792 q 431 754 428 776 q 419 713 435 732 q 382 690 404 693 q 340 703 360 688 q 308 728 324 715 q 279 751 294 739 q 250 774 264 763 q 221 751 236 763 q 192 728 206 739 q 160 703 176 715 q 118 690 140 688 q 81 713 96 693 q 68 754 65 732 q 90 792 71 776 l 215 889 q 250 900 231 900 q 285 889 269 900 l 410 792 z "},"á":{"ha":489,"x_min":21,"x_max":424,"o":"m 222 -18 q 144 -2 181 -18 q 80 41 107 14 q 37 105 53 68 q 21 183 21 142 q 37 262 21 225 q 80 326 53 299 q 144 369 107 353 q 222 385 181 385 l 299 385 l 299 458 q 286 499 299 481 q 253 526 274 518 q 210 531 232 535 q 172 510 188 526 q 128 492 154 492 q 85 510 103 492 q 65 554 65 529 q 85 599 65 579 q 186 653 128 642 q 300 642 244 665 q 390 569 357 618 q 424 458 424 519 l 424 44 q 406 0 424 18 q 361 -18 388 -18 l 222 -18 m 222 260 q 168 238 190 260 q 146 183 146 215 q 168 129 146 151 q 222 107 190 107 l 299 107 l 299 260 l 222 260 m 279 917 q 323 932 299 933 q 364 913 347 931 q 378 869 379 893 q 358 828 378 844 l 219 703 q 177 688 201 686 q 136 707 153 689 q 121 751 119 726 q 140 792 122 775 l 279 917 z "},"à":{"ha":489,"x_min":21,"x_max":424,"o":"m 222 -18 q 144 -2 181 -18 q 80 41 107 14 q 37 105 53 68 q 21 183 21 142 q 37 262 21 225 q 80 326 53 299 q 144 369 107 353 q 222 385 181 385 l 299 385 l 299 458 q 286 499 299 481 q 253 526 274 518 q 210 531 232 535 q 172 510 188 526 q 128 492 154 492 q 85 510 103 492 q 65 554 65 529 q 85 599 65 579 q 186 653 128 642 q 300 642 244 665 q 390 569 357 618 q 424 458 424 519 l 424 44 q 406 0 424 18 q 361 -18 388 -18 l 222 -18 m 222 260 q 168 238 190 260 q 146 183 146 215 q 168 129 146 151 q 222 107 190 107 l 299 107 l 299 260 l 222 260 m 358 792 q 378 751 378 775 q 363 707 379 726 q 323 688 347 689 q 279 703 299 686 l 140 828 q 121 869 122 844 q 136 913 119 893 q 177 932 153 931 q 219 917 201 933 l 358 792 z "},"ß":{"ha":594,"x_min":76,"x_max":535,"o":"m 535 206 q 517 117 535 158 q 467 44 499 75 q 394 -6 436 13 q 306 -24 353 -24 q 261 -6 279 -24 q 243 39 243 13 q 261 83 243 65 q 306 101 279 101 q 379 132 349 101 q 410 206 410 163 l 410 428 q 379 501 410 471 q 306 532 349 532 q 265 546 282 532 q 244 582 249 560 q 251 624 240 604 q 282 651 261 643 l 307 663 q 354 726 350 681 q 347 766 357 747 q 319 797 338 785 q 282 810 303 808 q 242 800 261 811 q 212 772 222 790 q 201 733 201 754 l 201 39 q 183 -6 201 13 q 139 -24 165 -24 q 94 -6 113 -24 q 76 39 76 13 l 76 733 q 105 838 76 790 q 182 911 133 885 q 288 935 232 938 q 389 901 343 932 q 456 828 432 874 q 479 733 479 783 q 478 714 479 721 q 439 614 474 657 q 509 534 483 582 q 535 428 535 486 l 535 206 l 535 206 z "},"ÿ":{"ha":513,"x_min":7,"x_max":490,"o":"m 444 803 q 422 749 444 771 q 368 726 400 726 q 314 749 336 726 q 292 803 292 771 q 314 857 292 835 q 368 879 336 879 q 422 857 400 879 q 444 803 444 835 m 146 726 q 92 749 114 726 q 69 803 69 771 q 92 857 69 835 q 146 879 114 879 q 200 857 178 879 q 222 803 222 835 q 200 749 222 771 q 146 726 178 726 m 263 -158 q 190 -261 243 -224 q 69 -301 138 -301 q 25 -283 43 -301 q 7 -239 7 -265 q 25 -194 7 -212 q 69 -176 43 -176 q 116 -161 96 -176 q 143 -122 136 -146 l 192 39 l 31 576 q 35 624 22 601 q 72 654 47 647 q 120 649 97 661 q 150 613 143 638 l 257 257 l 364 613 q 394 649 371 638 q 442 654 417 661 q 478 624 465 647 q 483 576 490 601 l 317 21 l 263 -158 z "},"œ":{"ha":789,"x_min":60,"x_max":740,"o":"m 461 -8 q 400 32 425 6 q 337 -9 372 6 q 261 -24 301 -24 q 183 -8 219 -24 q 119 35 146 8 q 76 99 92 63 q 60 178 60 136 l 60 456 q 76 534 60 497 q 119 598 92 571 q 183 641 146 625 q 261 657 219 657 q 337 642 301 657 q 400 601 372 628 q 463 642 428 628 q 539 657 499 657 q 617 641 581 657 q 681 598 654 625 q 724 534 708 571 q 740 456 740 497 l 740 317 q 722 272 740 290 q 678 254 704 254 l 463 254 l 463 178 q 475 135 463 154 q 510 107 488 117 q 553 103 531 99 q 593 124 576 107 q 637 143 611 143 q 681 124 663 143 q 700 79 700 104 q 681 35 700 54 q 578 -20 638 -8 q 461 -8 519 -32 m 539 532 q 485 510 507 532 q 463 456 463 488 l 463 379 l 615 379 l 615 456 q 593 510 615 488 q 539 532 571 532 m 261 101 q 315 124 293 101 q 338 178 338 146 l 338 456 q 315 510 338 488 q 261 532 293 532 q 207 510 229 532 q 185 456 185 488 l 185 178 q 207 124 185 146 q 261 101 229 101 z "},"Ï":{"ha":278,"x_min":-53,"x_max":331,"o":"m 169 1081 q 193 1138 169 1114 q 250 1161 217 1161 q 307 1138 283 1161 q 331 1081 331 1114 q 307 1024 331 1047 q 250 1000 283 1000 q 193 1024 217 1000 q 169 1081 169 1047 m 28 1161 q 85 1138 61 1161 q 108 1081 108 1114 q 85 1024 108 1047 q 28 1000 61 1000 q -29 1024 -6 1000 q -53 1081 -53 1047 q -29 1138 -53 1114 q 28 1161 -6 1161 m 72 844 q 92 892 72 872 q 139 911 111 911 q 186 892 167 911 q 206 844 206 872 l 206 39 q 186 -8 206 11 q 139 -28 167 -28 q 92 -8 111 -28 q 72 39 72 11 l 72 844 z "},"Î":{"ha":278,"x_min":-49,"x_max":326,"o":"m -33 988 q -46 1032 -49 1007 q -24 1072 -43 1057 l 101 1169 q 139 1182 118 1182 q 176 1169 160 1182 l 301 1072 q 324 1032 321 1057 q 311 988 326 1007 q 271 965 296 968 q 226 978 246 963 q 196 1001 211 989 q 167 1024 182 1013 q 139 1046 153 1035 q 110 1024 125 1035 q 82 1001 94 1013 q 51 978 67 989 q 7 965 32 963 q -33 988 -18 968 m 139 -28 q 92 -8 111 -28 q 72 39 72 11 l 72 844 q 92 892 72 872 q 139 911 111 911 q 186 892 167 911 q 206 844 206 872 l 206 39 q 186 -8 206 11 q 139 -28 167 -28 z "},"Ì":{"ha":278,"x_min":4,"x_max":274,"o":"m 256 983 q 212 962 238 964 q 167 978 186 960 l 28 1103 q 6 1147 8 1121 q 22 1192 4 1172 q 66 1213 40 1211 q 111 1197 92 1215 l 250 1072 q 272 1028 269 1054 q 256 983 274 1003 m 206 39 q 186 -8 206 11 q 139 -28 167 -28 q 92 -8 111 -28 q 72 39 72 11 l 72 844 q 92 892 72 872 q 139 911 111 911 q 186 892 167 911 q 206 844 206 872 l 206 39 z "},"Í":{"ha":278,"x_min":4,"x_max":274,"o":"m 72 844 q 92 892 72 872 q 139 911 111 911 q 186 892 167 911 q 206 844 206 872 l 206 39 q 186 -8 206 11 q 139 -28 167 -28 q 92 -8 111 -28 q 72 39 72 11 l 72 844 m 22 983 q 6 1028 4 1003 q 28 1072 8 1054 l 167 1197 q 212 1213 186 1215 q 256 1192 238 1211 q 272 1147 274 1172 q 250 1103 269 1121 l 111 978 q 66 962 92 960 q 22 983 40 964 z "},"Ñ":{"ha":667,"x_min":72,"x_max":594,"o":"m 543 -26 q 499 -22 519 -32 q 468 10 479 -11 q 381 192 426 99 q 295 367 342 271 q 206 553 249 463 l 206 39 q 186 -8 206 11 q 139 -28 167 -28 q 92 -8 111 -28 q 72 39 72 11 l 72 844 q 87 886 72 868 q 124 910 101 904 q 168 905 147 915 q 199 874 189 894 q 286 692 240 785 q 371 517 325 613 q 461 331 417 421 l 461 844 q 481 892 461 872 q 528 911 500 911 q 575 892 556 911 q 594 844 594 872 l 594 39 q 581 -3 594 15 q 543 -26 567 -21 m 258 1031 q 220 1005 244 1010 q 175 1014 196 1000 q 149 1052 154 1028 q 158 1097 144 1076 q 254 1160 193 1149 q 364 1133 314 1171 l 375 1125 q 385 1120 381 1121 q 393 1119 390 1119 q 401 1122 396 1121 q 408 1131 406 1124 q 447 1156 422 1151 q 492 1147 471 1161 q 517 1109 513 1133 q 508 1064 522 1085 q 468 1023 493 1039 q 414 1001 443 1007 q 303 1028 353 990 l 292 1036 q 274 1040 283 1043 q 258 1031 267 1040 z "},"Ë":{"ha":511,"x_min":72,"x_max":483,"o":"m 206 772 l 206 522 l 389 522 q 436 503 417 522 q 456 456 456 483 q 436 408 456 428 q 389 389 417 389 l 206 389 l 206 111 l 417 111 q 464 92 444 111 q 483 44 483 72 q 464 -3 483 17 q 417 -22 444 -22 l 139 -22 q 92 -3 111 -22 q 72 44 72 17 l 72 839 q 92 886 72 867 q 139 906 111 906 l 417 906 q 464 886 444 906 q 483 839 483 867 q 464 792 483 811 q 417 772 444 772 l 206 772 m 308 1081 q 332 1138 308 1114 q 389 1161 356 1161 q 446 1138 422 1161 q 469 1081 469 1114 q 446 1024 469 1047 q 389 1000 422 1000 q 332 1024 356 1000 q 308 1081 308 1047 m 86 1081 q 110 1138 86 1114 q 167 1161 133 1161 q 224 1138 200 1161 q 247 1081 247 1114 q 224 1024 247 1047 q 167 1000 200 1000 q 110 1024 133 1000 q 86 1081 86 1047 z "},"Ê":{"ha":511,"x_min":72,"x_max":483,"o":"m 483 44 q 464 -3 483 17 q 417 -22 444 -22 l 139 -22 q 92 -3 111 -22 q 72 44 72 17 l 72 839 q 92 886 72 867 q 139 906 111 906 l 417 906 q 464 886 444 906 q 483 839 483 867 q 464 792 483 811 q 417 772 444 772 l 206 772 l 206 522 l 389 522 q 436 503 417 522 q 456 456 456 483 q 436 408 456 428 q 389 389 417 389 l 206 389 l 206 111 l 417 111 q 464 92 444 111 q 483 44 483 72 m 106 988 q 93 1032 90 1007 q 115 1072 96 1057 l 240 1169 q 278 1182 257 1182 q 314 1169 299 1182 l 439 1072 q 462 1032 458 1057 q 450 988 465 1007 q 410 965 435 968 q 365 978 385 963 q 335 1001 350 989 q 306 1024 321 1013 q 278 1046 292 1035 q 248 1024 263 1035 q 219 1001 233 1013 q 189 978 204 989 q 145 965 169 963 q 106 988 121 968 z "},"È":{"ha":511,"x_min":72,"x_max":483,"o":"m 206 772 l 206 522 l 389 522 q 436 503 417 522 q 456 456 456 483 q 436 408 456 428 q 389 389 417 389 l 206 389 l 206 111 l 417 111 q 464 92 444 111 q 483 44 483 72 q 464 -3 483 17 q 417 -22 444 -22 l 139 -22 q 92 -3 111 -22 q 72 44 72 17 l 72 839 q 92 886 72 867 q 139 906 111 906 l 417 906 q 464 886 444 906 q 483 839 483 867 q 464 792 483 811 q 417 772 444 772 l 206 772 m 165 1103 q 144 1147 146 1121 q 161 1192 143 1172 q 205 1213 179 1211 q 250 1197 231 1215 l 389 1072 q 410 1028 408 1054 q 393 983 411 1003 q 350 962 376 964 q 304 978 324 960 l 165 1103 z "},"É":{"ha":511,"x_min":72,"x_max":483,"o":"m 206 772 l 206 522 l 389 522 q 436 503 417 522 q 456 456 456 483 q 436 408 456 428 q 389 389 417 389 l 206 389 l 206 111 l 417 111 q 464 92 444 111 q 483 44 483 72 q 464 -3 483 17 q 417 -22 444 -22 l 139 -22 q 92 -3 111 -22 q 72 44 72 17 l 72 839 q 92 886 72 867 q 139 906 111 906 l 417 906 q 464 886 444 906 q 483 839 483 867 q 464 792 483 811 q 417 772 444 772 l 206 772 m 304 1197 q 350 1213 324 1215 q 393 1192 376 1211 q 410 1147 411 1172 q 389 1103 408 1121 l 250 978 q 205 962 231 960 q 161 983 179 964 q 144 1028 143 1003 q 165 1072 146 1054 l 304 1197 z "},"Ç":{"ha":547,"x_min":56,"x_max":518,"o":"m 222 -18 q 101 66 147 4 q 56 206 56 128 l 56 678 q 68 753 56 717 q 103 820 81 790 q 158 872 126 850 q 228 903 190 893 q 304 910 265 913 q 378 894 343 908 q 442 854 413 879 q 490 794 471 829 l 504 771 q 510 720 518 747 q 479 679 503 693 q 429 673 456 665 q 389 704 403 681 l 375 728 q 326 770 358 757 q 263 774 294 783 q 209 738 229 765 q 189 678 189 711 l 189 206 q 209 144 189 171 q 263 108 229 118 q 326 113 294 100 q 375 156 358 126 l 389 179 q 429 210 403 203 q 479 204 456 218 q 510 163 503 190 q 504 113 518 136 l 490 89 q 432 22 467 49 q 356 -18 397 -6 l 356 -49 q 331 -138 356 -97 q 265 -203 307 -179 q 215 -210 242 -217 q 175 -179 189 -203 q 169 -128 161 -156 q 200 -87 176 -101 q 216 -71 210 -81 q 222 -49 222 -61 l 222 -18 l 222 -18 z "},"Æ":{"ha":857,"x_min":-4,"x_max":828,"o":"m 550 772 l 550 522 l 733 522 q 781 503 761 522 q 800 456 800 483 q 781 408 800 428 q 733 389 761 389 l 550 389 l 550 111 l 761 111 q 808 92 789 111 q 828 44 828 72 q 808 -3 828 17 q 761 -22 789 -22 l 483 -22 q 436 -3 456 -22 q 417 44 417 17 l 417 167 l 197 167 q 169 103 182 132 q 147 54 157 75 q 128 11 136 29 q 91 -24 117 -14 q 40 -22 65 -33 q 6 15 15 -11 q 7 67 -4 40 l 365 867 q 390 895 372 885 q 426 906 407 906 l 761 906 q 808 886 789 906 q 828 839 828 867 q 808 792 828 811 q 761 772 789 772 l 550 772 m 417 300 l 417 657 q 342 489 385 585 q 257 300 299 393 l 417 300 z "},"Ã":{"ha":600,"x_min":7,"x_max":593,"o":"m 125 1097 q 221 1160 160 1149 q 331 1133 282 1171 l 342 1125 q 352 1120 347 1121 q 360 1119 357 1119 q 367 1122 363 1121 q 375 1131 372 1124 q 413 1156 389 1151 q 458 1147 438 1161 q 485 1109 479 1133 q 475 1064 490 1085 q 435 1023 460 1039 q 381 1001 410 1007 q 269 1028 319 990 l 258 1036 q 240 1040 250 1043 q 225 1031 233 1040 q 187 1005 211 1010 q 142 1014 163 1000 q 117 1052 122 1028 q 125 1097 111 1076 m 586 57 q 580 6 593 29 q 540 -25 567 -18 q 489 -19 513 -32 q 458 21 465 -6 q 447 61 453 38 q 434 108 442 81 q 418 167 426 135 l 182 167 q 165 108 172 135 q 153 61 158 81 q 142 21 147 38 q 111 -19 135 -6 q 60 -25 88 -32 q 20 6 33 -18 q 14 57 7 29 l 236 863 q 259 898 242 885 q 300 911 276 911 q 341 898 324 911 q 364 863 358 885 l 586 57 m 381 300 q 340 449 361 372 q 300 593 319 525 q 260 449 281 525 q 219 300 239 372 l 381 300 z "},"Â":{"ha":600,"x_min":7,"x_max":593,"o":"m 264 1169 q 300 1182 279 1182 q 338 1169 321 1182 l 463 1072 q 485 1032 482 1057 q 472 988 488 1007 q 433 965 457 968 q 389 978 408 963 q 358 1001 374 989 q 329 1024 344 1013 q 300 1046 314 1035 q 271 1024 286 1035 q 243 1001 256 1013 q 213 978 228 989 q 168 965 193 963 q 128 988 143 968 q 116 1032 113 1007 q 139 1072 119 1057 l 264 1169 m 586 57 q 580 6 593 29 q 540 -25 567 -18 q 489 -19 513 -32 q 458 21 465 -6 q 447 61 453 38 q 434 108 442 81 q 418 167 426 135 l 182 167 q 165 108 172 135 q 153 61 158 81 q 142 21 147 38 q 111 -19 135 -6 q 60 -25 88 -32 q 20 6 33 -18 q 14 57 7 29 l 236 863 q 259 898 242 885 q 300 911 276 911 q 341 898 324 911 q 364 863 358 885 l 586 57 m 381 300 q 340 449 361 372 q 300 593 319 525 q 260 449 281 525 q 219 300 239 372 l 381 300 z "},"À":{"ha":600,"x_min":7,"x_max":593,"o":"m 183 1192 q 227 1213 201 1211 q 272 1197 253 1215 l 411 1072 q 433 1028 431 1054 q 417 983 435 1003 q 372 962 399 964 q 326 978 346 960 l 188 1103 q 167 1147 168 1121 q 183 1192 165 1172 m 586 57 q 580 6 593 29 q 540 -25 567 -18 q 489 -19 513 -32 q 458 21 465 -6 q 447 61 453 38 q 434 108 442 81 q 418 167 426 135 l 182 167 q 165 108 172 135 q 153 61 158 81 q 142 21 147 38 q 111 -19 135 -6 q 60 -25 88 -32 q 20 6 33 -18 q 14 57 7 29 l 236 863 q 259 898 242 885 q 300 911 276 911 q 341 898 324 911 q 364 863 358 885 l 586 57 m 381 300 q 340 449 361 372 q 300 593 319 525 q 260 449 281 525 q 219 300 239 372 l 381 300 z "},"Á":{"ha":600,"x_min":7,"x_max":593,"o":"m 328 1197 q 373 1213 347 1215 q 417 1192 399 1211 q 433 1147 435 1172 q 411 1103 431 1121 l 272 978 q 227 962 253 960 q 183 983 201 964 q 167 1028 165 1003 q 189 1072 169 1054 l 328 1197 m 586 57 q 580 6 593 29 q 540 -25 567 -18 q 489 -19 513 -32 q 458 21 465 -6 q 447 61 453 38 q 434 108 442 81 q 418 167 426 135 l 182 167 q 165 108 172 135 q 153 61 158 81 q 142 21 147 38 q 111 -19 135 -6 q 60 -25 88 -32 q 20 6 33 -18 q 14 57 7 29 l 236 863 q 259 898 242 885 q 300 911 276 911 q 341 898 324 911 q 364 863 358 885 l 586 57 m 381 300 q 340 449 361 372 q 300 593 319 525 q 260 449 281 525 q 219 300 239 372 l 381 300 z "},"Œ":{"ha":828,"x_min":56,"x_max":800,"o":"m 289 -28 q 198 -10 240 -28 q 124 40 156 8 q 74 115 92 72 q 56 206 56 157 l 56 678 q 74 769 56 726 q 124 843 92 811 q 198 893 156 875 q 289 911 240 911 q 404 881 350 911 q 456 906 422 906 l 733 906 q 781 886 761 906 q 800 839 800 867 q 781 792 800 811 q 733 772 761 772 l 522 772 l 522 650 l 522 522 l 706 522 q 753 503 733 522 q 772 456 772 483 q 753 408 772 428 q 706 389 733 389 l 522 389 l 522 233 l 522 111 l 733 111 q 781 92 761 111 q 800 44 800 72 q 781 -3 800 17 q 733 -22 761 -22 l 456 -22 q 404 3 422 -22 q 289 -28 350 -28 m 289 778 q 218 749 247 778 q 189 678 189 719 l 189 206 q 218 135 189 164 q 289 106 247 106 q 360 135 331 106 q 389 206 389 164 l 389 233 l 389 650 l 389 678 q 360 749 389 719 q 289 778 331 778 z "},"Ó":{"ha":578,"x_min":56,"x_max":522,"o":"m 289 -28 q 198 -10 240 -28 q 124 40 156 8 q 74 115 93 72 q 56 206 56 157 l 56 678 q 74 769 56 726 q 124 843 93 811 q 198 893 156 875 q 289 911 240 911 q 380 893 338 911 q 454 843 422 875 q 504 769 486 811 q 522 678 522 726 l 522 206 q 504 115 522 157 q 454 40 486 72 q 380 -10 422 8 q 289 -28 338 -28 m 289 778 q 219 749 249 778 q 189 678 189 719 l 189 206 q 219 135 189 164 q 289 106 249 106 q 360 135 331 106 q 389 206 389 164 l 389 678 q 360 749 389 719 q 289 778 331 778 m 174 983 q 157 1028 156 1003 q 178 1072 158 1054 l 317 1197 q 362 1213 336 1215 q 406 1192 388 1211 q 422 1147 424 1172 q 401 1103 421 1121 l 263 978 q 217 962 243 960 q 174 983 190 964 z "},"Ò":{"ha":578,"x_min":56,"x_max":522,"o":"m 522 206 q 504 115 522 157 q 454 40 486 72 q 380 -10 422 8 q 289 -28 338 -28 q 198 -10 240 -28 q 124 40 156 8 q 74 115 93 72 q 56 206 56 157 l 56 678 q 74 769 56 726 q 124 843 93 811 q 198 893 156 875 q 289 911 240 911 q 380 893 338 911 q 454 843 422 875 q 504 769 486 811 q 522 678 522 726 l 522 206 m 289 106 q 360 135 331 106 q 389 206 389 164 l 389 678 q 360 749 389 719 q 289 778 331 778 q 219 749 249 778 q 189 678 189 719 l 189 206 q 219 135 189 164 q 289 106 249 106 m 172 1192 q 217 1213 190 1211 q 263 1197 243 1215 l 401 1072 q 422 1028 421 1054 q 406 983 424 1003 q 362 962 388 964 q 317 978 336 960 l 178 1103 q 157 1147 158 1121 q 172 1192 156 1172 z "},"Ô":{"ha":578,"x_min":56,"x_max":522,"o":"m 522 206 q 504 115 522 157 q 454 40 486 72 q 380 -10 422 8 q 289 -28 338 -28 q 198 -10 240 -28 q 124 40 156 8 q 74 115 93 72 q 56 206 56 157 l 56 678 q 74 769 56 726 q 124 843 93 811 q 198 893 156 875 q 289 911 240 911 q 380 893 338 911 q 454 843 422 875 q 504 769 486 811 q 522 678 522 726 l 522 206 m 189 206 q 219 135 189 164 q 289 106 249 106 q 360 135 331 106 q 389 206 389 164 l 389 678 q 360 749 389 719 q 289 778 331 778 q 219 749 249 778 q 189 678 189 719 l 189 206 m 451 1072 q 474 1032 471 1057 q 463 988 478 1007 q 422 965 447 968 q 378 978 397 963 q 347 1001 363 989 q 318 1024 333 1013 q 289 1046 303 1035 q 260 1024 275 1035 q 232 1001 244 1013 q 201 978 217 989 q 157 965 182 963 q 117 988 132 968 q 105 1032 101 1007 q 128 1072 108 1057 l 253 1169 q 290 1182 269 1182 q 326 1169 310 1182 l 451 1072 z "},"Õ":{"ha":578,"x_min":56,"x_max":522,"o":"m 522 206 q 503 115 522 157 q 453 40 485 72 q 379 -10 422 8 q 289 -28 336 -28 q 198 -10 240 -28 q 124 40 156 8 q 74 115 92 72 q 56 206 56 157 l 56 678 q 74 769 56 726 q 124 843 92 811 q 198 893 156 875 q 289 911 240 911 q 379 893 336 911 q 453 843 422 875 q 503 769 485 811 q 522 678 522 726 l 522 206 m 289 106 q 359 135 329 106 q 389 206 389 164 l 389 678 q 359 749 389 719 q 289 778 329 778 q 218 749 247 778 q 189 678 189 719 l 189 206 q 218 135 189 164 q 289 106 247 106 m 208 1160 q 319 1133 269 1171 l 331 1125 q 340 1120 336 1121 q 347 1119 344 1119 q 355 1122 350 1121 q 364 1131 360 1124 q 402 1156 378 1151 q 447 1147 426 1161 q 472 1109 467 1133 q 464 1064 478 1085 q 368 1001 429 1013 q 258 1028 307 990 l 247 1036 q 237 1041 242 1040 q 229 1040 232 1042 q 214 1031 219 1040 q 175 1005 199 1010 q 131 1014 151 1000 q 104 1052 110 1028 q 114 1097 99 1076 q 154 1138 129 1122 q 208 1160 179 1154 z "},"Ø":{"ha":592,"x_min":-22,"x_max":614,"o":"m 576 956 q 607 918 600 943 q 601 869 614 893 l 524 728 q 528 703 526 715 q 529 678 529 690 l 529 206 q 510 115 529 157 q 460 40 492 72 q 386 -10 429 8 q 296 -28 343 -28 q 213 -13 251 -28 q 143 29 174 1 l 101 -47 q 64 -78 89 -71 q 15 -72 39 -85 q -15 -35 -8 -60 q -10 14 -22 -10 l 68 156 q 63 206 63 178 l 63 678 q 81 769 63 726 q 131 843 99 811 q 205 893 163 875 q 296 911 247 911 q 378 896 340 911 q 449 854 417 881 l 490 931 q 528 961 503 954 q 576 956 553 968 m 296 778 q 225 749 254 778 q 196 678 196 719 l 196 390 l 381 731 q 345 765 367 751 q 296 778 324 778 m 296 106 q 366 135 336 106 q 396 206 396 164 l 396 493 l 210 153 q 246 119 224 132 q 296 106 268 106 z "},"Ú":{"ha":589,"x_min":61,"x_max":528,"o":"m 528 206 q 510 115 528 157 q 460 40 492 72 q 385 -10 428 8 q 294 -28 343 -28 q 203 -10 246 -28 q 129 40 161 8 q 79 115 97 72 q 61 206 61 157 l 61 844 q 81 892 61 872 q 128 911 100 911 q 175 892 156 911 q 194 844 194 872 l 194 206 q 224 135 194 164 q 294 106 253 106 q 365 135 336 106 q 394 206 394 164 l 394 844 q 414 892 394 872 q 461 911 433 911 q 508 892 489 911 q 528 844 528 872 l 528 206 m 267 978 q 222 962 247 960 q 178 983 196 964 q 162 1028 160 1003 q 183 1072 164 1054 l 322 1197 q 367 1213 342 1215 q 411 1192 393 1211 q 427 1147 429 1172 q 406 1103 425 1121 l 267 978 z "},"Ù":{"ha":589,"x_min":61,"x_max":528,"o":"m 294 -28 q 203 -10 246 -28 q 129 40 161 8 q 79 115 97 72 q 61 206 61 157 l 61 844 q 81 892 61 872 q 128 911 100 911 q 175 892 156 911 q 194 844 194 872 l 194 206 q 224 135 194 164 q 294 106 253 106 q 365 135 336 106 q 394 206 394 164 l 394 844 q 414 892 394 872 q 461 911 433 911 q 508 892 489 911 q 528 844 528 872 l 528 206 q 510 115 528 157 q 460 40 492 72 q 385 -10 428 8 q 294 -28 343 -28 m 178 1192 q 222 1213 196 1211 q 267 1197 247 1215 l 406 1072 q 427 1028 425 1054 q 411 983 429 1003 q 367 962 393 964 q 321 978 340 960 l 182 1103 q 161 1147 163 1121 q 178 1192 160 1172 z "},"Û":{"ha":589,"x_min":61,"x_max":528,"o":"m 294 -28 q 203 -10 246 -28 q 130 40 161 8 q 80 115 99 72 q 61 206 61 157 l 61 844 q 81 892 61 872 q 128 911 100 911 q 175 892 156 911 q 194 844 194 872 l 194 206 q 224 135 194 164 q 294 106 254 106 q 365 135 336 106 q 394 206 394 164 l 394 844 q 414 892 394 872 q 461 911 433 911 q 508 892 489 911 q 528 844 528 872 l 528 206 q 510 115 528 157 q 460 40 492 72 q 385 -10 428 8 q 294 -28 343 -28 m 122 988 q 110 1032 107 1007 q 133 1072 114 1057 l 258 1169 q 294 1182 274 1182 q 332 1169 315 1182 l 457 1072 q 479 1032 476 1057 q 467 988 482 1007 q 427 965 451 968 q 383 978 403 963 q 353 1001 368 989 q 324 1024 339 1013 q 294 1046 308 1035 q 265 1024 281 1035 q 238 1001 250 1013 q 207 978 222 989 q 163 965 188 963 q 122 988 138 968 z "},"Ü":{"ha":589,"x_min":61,"x_max":528,"o":"m 294 -28 q 203 -10 246 -28 q 130 40 161 8 q 80 115 99 72 q 61 206 61 157 l 61 844 q 81 892 61 872 q 128 911 100 911 q 175 892 156 911 q 194 844 194 872 l 194 206 q 224 135 194 164 q 294 106 254 106 q 365 135 336 106 q 394 206 394 164 l 394 844 q 414 892 394 872 q 461 911 433 911 q 508 892 489 911 q 528 844 528 872 l 528 206 q 510 115 528 157 q 460 40 492 72 q 385 -10 428 8 q 294 -28 343 -28 m 325 1081 q 349 1138 325 1114 q 406 1161 372 1161 q 463 1138 439 1161 q 486 1081 486 1114 q 463 1024 486 1047 q 406 1000 439 1000 q 349 1024 372 1000 q 325 1081 325 1047 m 183 1000 q 126 1024 150 1000 q 103 1081 103 1047 q 126 1138 103 1114 q 183 1161 150 1161 q 240 1138 217 1161 q 264 1081 264 1114 q 240 1024 264 1047 q 183 1000 217 1000 z "},"Ý":{"ha":558,"x_min":13,"x_max":546,"o":"m 414 874 q 453 908 426 899 q 504 904 479 917 q 537 865 528 892 q 533 814 546 839 l 346 440 l 346 39 q 326 -8 346 11 q 279 -28 307 -28 q 232 -8 251 -28 q 213 39 213 11 l 213 440 l 25 814 q 22 865 13 839 q 56 904 31 892 q 106 908 79 917 q 144 874 132 899 l 190 782 q 233 694 210 742 q 279 604 257 647 q 325 694 301 647 q 368 782 349 742 l 414 874 m 253 978 q 207 962 233 960 q 163 983 181 964 q 147 1028 146 1003 q 168 1072 149 1054 l 307 1197 q 352 1213 326 1215 q 396 1192 378 1211 q 413 1147 414 1172 q 392 1103 411 1121 l 253 978 z "},"Ÿ":{"ha":558,"x_min":13,"x_max":544,"o":"m 413 874 q 451 908 425 899 q 503 904 478 917 q 536 865 528 892 q 532 814 544 839 l 344 440 l 344 39 q 325 -8 344 11 q 278 -28 306 -28 q 231 -8 250 -28 q 211 39 211 11 l 211 440 l 24 814 q 21 865 13 839 q 54 904 29 892 q 105 908 79 917 q 143 874 131 899 l 189 782 q 232 694 208 742 q 278 604 256 647 q 324 694 300 647 q 367 782 347 742 l 413 874 m 308 1081 q 332 1138 308 1114 q 389 1161 356 1161 q 446 1138 422 1161 q 469 1081 469 1114 q 446 1024 469 1047 q 389 1000 422 1000 q 332 1024 356 1000 q 308 1081 308 1047 m 247 1081 q 224 1024 247 1047 q 167 1000 200 1000 q 110 1024 133 1000 q 86 1081 86 1047 q 110 1138 86 1114 q 167 1161 133 1161 q 224 1138 200 1161 q 247 1081 247 1114 z "},"Ð":{"ha":613,"x_min":-17,"x_max":557,"o":"m 324 906 q 415 888 372 906 q 489 838 457 869 q 539 763 521 806 q 557 672 557 721 l 557 211 q 539 120 557 163 q 489 46 521 78 q 415 -4 457 14 q 324 -22 372 -22 l 157 -22 q 110 -3 129 -22 q 90 44 90 17 l 90 392 l 46 392 q 1 410 19 392 q -17 456 -17 429 q 1 500 -17 482 q 46 518 19 518 l 90 518 l 90 839 q 110 886 90 867 q 157 906 129 906 l 324 906 m 424 672 q 394 743 424 714 q 324 772 365 772 l 224 772 l 224 518 l 296 518 q 342 500 324 518 q 360 456 360 482 q 342 410 360 429 q 296 392 324 392 l 224 392 l 224 111 l 324 111 q 394 140 365 111 q 424 211 424 169 l 424 672 z "},"Þ":{"ha":556,"x_min":72,"x_max":539,"o":"m 306 731 q 396 713 353 731 q 470 663 439 694 q 520 588 501 631 q 539 497 539 546 l 539 414 q 520 323 539 365 q 470 249 501 281 q 396 199 439 217 q 306 181 353 181 l 206 181 l 206 39 q 186 -8 206 11 q 139 -28 167 -28 q 92 -8 111 -28 q 72 39 72 11 l 72 839 q 92 886 72 867 q 139 906 111 906 q 186 886 167 906 q 206 839 206 867 l 206 731 l 306 731 m 306 314 q 376 343 346 314 q 406 414 406 372 l 406 497 q 376 568 406 539 q 306 597 346 597 l 206 597 l 206 314 l 306 314 z "},"™":{"ha":931,"x_min":17,"x_max":865,"o":"m 575 881 q 604 840 589 861 q 632 801 617 822 q 663 758 647 779 q 694 801 678 779 q 722 840 710 822 q 750 881 738 861 q 782 904 763 897 q 821 904 801 911 q 853 881 840 897 q 865 844 865 865 l 865 428 q 847 383 865 401 q 801 364 828 364 q 757 383 775 364 q 739 428 739 401 l 739 647 q 732 638 736 643 q 724 626 728 632 q 714 614 718 621 q 663 586 696 586 q 611 614 632 586 q 601 626 607 621 q 588 647 592 638 l 588 428 q 569 383 588 401 q 524 364 550 364 q 479 383 497 364 q 461 428 461 401 l 461 844 q 473 881 461 865 q 504 904 485 897 q 544 904 524 911 q 575 881 564 897 m 218 364 q 174 383 192 364 q 156 428 156 401 l 156 775 l 79 775 q 35 794 53 775 q 17 839 17 813 q 35 883 17 865 q 79 901 53 901 l 357 901 q 402 883 383 901 q 421 839 421 865 q 402 794 421 813 q 357 775 383 775 l 282 775 l 282 428 q 263 383 282 401 q 218 364 244 364 z "},"©":{"ha":997,"x_min":33,"x_max":965,"o":"m 488 585 q 451 539 451 575 l 451 344 q 461 315 451 328 q 488 299 471 303 q 518 300 503 294 q 540 321 533 306 q 579 350 554 343 q 626 343 604 357 q 657 306 650 331 q 650 257 664 281 q 567 183 621 206 q 454 176 513 161 q 360 238 396 192 q 325 344 325 285 l 325 539 q 360 645 325 599 q 454 707 396 692 q 567 700 513 722 q 650 626 621 678 q 657 578 664 603 q 626 540 650 553 q 579 533 604 526 q 540 563 554 539 q 518 583 533 578 q 488 585 503 589 m 965 442 q 931 263 965 347 q 829 113 896 179 q 678 10 763 46 q 499 -25 593 -25 q 321 10 406 -25 q 169 113 236 46 q 68 263 103 179 q 33 442 33 347 q 68 620 33 536 q 169 771 103 704 q 321 872 236 838 q 499 907 406 907 q 678 872 593 907 q 829 771 763 838 q 931 620 896 704 q 965 442 965 536 m 499 101 q 629 127 568 101 q 739 201 690 153 q 813 312 788 250 q 839 442 839 374 q 813 572 839 510 q 739 682 788 633 q 629 756 690 731 q 499 781 568 781 q 369 756 431 781 q 260 682 308 731 q 185 572 211 633 q 160 442 160 510 q 185 312 160 374 q 260 201 211 250 q 369 127 308 153 q 499 101 431 101 z "},"®":{"ha":997,"x_min":33,"x_max":965,"o":"m 688 533 q 666 449 688 488 q 608 388 644 411 l 679 265 q 685 217 692 242 q 656 178 679 192 q 607 172 632 165 q 569 201 582 179 l 479 358 l 465 358 l 465 233 q 447 188 465 207 q 401 169 429 169 q 357 188 375 169 q 339 233 339 207 l 339 644 q 357 689 339 671 q 401 707 375 707 l 513 707 q 581 693 549 707 q 636 656 613 679 q 674 601 660 632 q 688 533 688 569 m 465 581 l 465 485 l 513 485 q 547 499 532 485 q 561 533 561 514 q 547 567 561 553 q 513 581 532 581 l 465 581 m 499 907 q 678 872 593 907 q 829 771 763 838 q 931 620 896 704 q 965 442 965 536 q 931 263 965 347 q 829 113 896 179 q 678 10 763 46 q 499 -25 593 -25 q 321 10 406 -25 q 169 113 236 46 q 68 263 103 179 q 33 442 33 347 q 68 620 33 536 q 169 771 103 704 q 321 872 236 838 q 499 907 406 907 m 739 201 q 813 312 788 250 q 839 442 839 374 q 813 572 839 510 q 739 682 788 633 q 629 756 690 731 q 499 781 568 781 q 369 756 431 781 q 260 682 308 731 q 185 572 211 633 q 160 442 160 510 q 185 312 160 374 q 260 201 211 250 q 369 127 308 153 q 499 101 431 101 q 629 127 568 101 q 739 201 690 153 z "},"?":{"ha":496,"x_min":13,"x_max":464,"o":"m 208 776 q 170 759 188 771 q 142 728 153 747 q 101 697 128 704 q 50 703 74 689 q 19 744 26 718 q 26 794 13 771 q 92 867 51 839 q 182 907 133 896 q 281 906 232 917 q 369 864 329 894 q 434 788 410 832 q 461 694 458 744 q 447 597 464 644 q 394 514 431 550 l 324 443 q 294 372 294 411 l 294 261 q 275 214 294 233 q 228 194 256 194 q 181 214 200 194 q 161 261 161 233 l 161 372 q 179 460 161 418 q 229 536 197 503 l 300 607 q 323 642 315 622 q 328 685 331 663 q 289 757 325 729 q 208 776 253 785 m 308 53 q 285 -4 308 19 q 228 -28 261 -28 q 171 -4 194 -28 q 147 53 147 19 q 171 110 147 86 q 228 133 194 133 q 285 110 261 133 q 308 53 308 86 z "},"!":{"ha":278,"x_min":58,"x_max":219,"o":"m 139 -28 q 82 -4 106 -28 q 58 53 58 19 q 82 110 58 86 q 139 133 106 133 q 196 110 172 133 q 219 53 219 86 q 196 -4 219 19 q 139 -28 172 -28 m 72 817 q 92 864 72 844 q 139 883 111 883 q 186 864 167 883 q 206 817 206 844 l 206 261 q 186 214 206 233 q 139 194 167 194 q 92 214 111 194 q 72 261 72 233 l 72 817 z "},"¿":{"ha":496,"x_min":31,"x_max":483,"o":"m 186 581 q 210 638 186 614 q 267 661 233 661 q 324 638 300 661 q 347 581 347 614 q 324 524 347 547 q 267 500 300 500 q 210 524 233 500 q 186 581 186 547 m 125 -231 q 61 -155 85 -199 q 35 -61 38 -111 q 48 36 31 -11 q 101 119 65 83 l 172 190 q 200 261 200 221 l 200 372 q 219 419 200 400 q 267 439 239 439 q 314 419 294 439 q 333 372 333 400 l 333 261 q 267 97 333 167 l 196 26 q 167 -51 164 -6 q 207 -124 171 -99 q 286 -143 242 -151 q 354 -94 329 -135 q 394 -63 368 -71 q 444 -69 421 -56 q 476 -111 468 -85 q 469 -161 483 -137 q 403 -234 444 -206 q 313 -274 363 -262 q 215 -272 264 -283 q 125 -231 165 -261 z "},"¡":{"ha":278,"x_min":58,"x_max":219,"o":"m 139 661 q 196 638 172 661 q 219 581 219 614 q 196 524 219 547 q 139 500 172 500 q 82 524 106 500 q 58 581 58 547 q 82 638 58 614 q 139 661 106 661 m 139 439 q 186 419 167 439 q 206 372 206 400 l 206 -183 q 186 -231 206 -211 q 139 -250 167 -250 q 92 -231 111 -250 q 72 -183 72 -211 l 72 372 q 92 419 72 400 q 139 439 111 439 z "},"•":{"ha":356,"x_min":21,"x_max":335,"o":"m 178 549 q 240 536 211 549 q 289 502 268 524 q 322 452 310 481 q 335 392 335 424 q 322 331 335 360 q 289 281 310 303 q 240 247 268 260 q 178 235 211 235 q 117 247 146 235 q 67 281 89 260 q 33 331 46 303 q 21 392 21 360 q 33 452 21 424 q 67 502 46 481 q 117 536 89 524 q 178 549 146 549 m 178 354 q 204 365 193 354 q 215 392 215 376 q 204 418 215 407 q 178 429 193 429 q 151 418 163 429 q 140 392 140 407 q 151 365 140 376 q 178 354 163 354 z "},"„":{"ha":517,"x_min":42,"x_max":468,"o":"m 218 0 q 196 -76 218 -42 q 135 -125 174 -110 q 88 -126 111 -136 q 53 -92 64 -115 q 52 -43 42 -67 q 86 -8 63 -19 q 92 0 92 -7 l 92 6 q 60 29 72 13 q 47 67 47 46 q 66 111 47 93 q 111 129 85 129 l 156 129 q 200 111 182 129 q 218 67 218 93 l 218 0 m 336 -8 q 342 0 342 -7 l 342 6 q 310 29 322 13 q 297 67 297 46 q 316 111 297 93 q 361 129 335 129 l 406 129 q 450 111 432 129 q 468 67 468 93 l 468 0 q 446 -76 468 -42 q 385 -125 424 -110 q 338 -126 361 -136 q 303 -92 314 -115 q 302 -43 292 -67 q 336 -8 313 -19 z "},"“":{"ha":515,"x_min":47,"x_max":474,"o":"m 429 786 q 424 778 424 785 l 424 771 q 456 749 443 765 q 468 711 468 732 q 449 666 468 685 q 404 647 431 647 l 360 647 q 315 666 333 647 q 297 711 297 685 l 297 778 q 319 853 297 818 q 381 903 342 888 q 428 903 404 914 q 463 868 451 893 q 463 821 474 844 q 429 786 453 797 m 110 647 q 65 666 83 647 q 47 711 47 685 l 47 778 q 69 853 47 818 q 131 903 92 888 q 178 903 154 914 q 213 868 201 893 q 213 821 224 844 q 179 786 203 797 q 174 778 174 785 l 174 771 q 206 749 193 765 q 218 711 218 732 q 199 666 218 685 q 154 647 181 647 l 110 647 z "},"”":{"ha":517,"x_min":42,"x_max":469,"o":"m 88 764 q 93 772 93 767 l 93 778 q 61 801 74 785 q 49 839 49 818 q 67 883 49 865 q 111 901 85 901 l 156 901 q 201 883 182 901 q 219 839 219 865 l 219 772 q 197 697 219 731 q 136 647 174 663 q 88 647 111 636 q 53 681 64 657 q 52 729 42 706 q 88 764 63 753 m 338 764 q 343 772 343 767 l 343 778 q 311 801 324 785 q 299 839 299 818 q 317 883 299 865 q 361 901 335 901 l 406 901 q 451 883 432 901 q 469 839 469 865 l 469 772 q 447 697 469 731 q 386 647 424 663 q 338 647 361 636 q 303 681 314 657 q 302 729 292 706 q 338 764 313 753 z "},"\"":{"ha":489,"x_min":67,"x_max":422,"o":"m 356 911 q 403 892 383 911 q 422 844 422 872 l 422 706 q 403 658 422 678 q 356 639 383 639 q 308 658 328 639 q 289 706 289 678 l 289 844 q 308 892 289 872 q 356 911 328 911 m 67 844 q 86 892 67 872 q 133 911 106 911 q 181 892 161 911 q 200 844 200 872 l 200 706 q 181 658 200 678 q 133 639 161 639 q 86 658 106 639 q 67 706 67 678 l 67 844 z "},"‚":{"ha":265,"x_min":42,"x_max":218,"o":"m 156 129 q 200 111 182 129 q 218 67 218 93 l 218 0 q 195 -76 218 -42 q 135 -125 172 -110 q 87 -126 111 -136 q 53 -92 63 -115 q 52 -43 42 -67 q 86 -8 63 -19 q 92 0 92 -6 l 92 6 q 60 29 72 13 q 47 67 47 46 q 65 111 47 93 q 111 129 83 129 l 156 129 l 156 129 z "},"‘":{"ha":267,"x_min":47,"x_max":224,"o":"m 218 711 q 200 666 218 685 q 156 647 182 647 l 111 647 q 65 666 83 647 q 47 711 47 685 l 47 778 q 70 853 47 818 q 131 903 93 888 q 178 903 154 914 q 214 868 203 893 q 213 821 224 844 q 179 786 203 797 q 174 778 174 783 l 174 771 q 206 749 193 765 q 218 711 218 732 z "},"’":{"ha":267,"x_min":42,"x_max":218,"o":"m 86 764 q 92 772 92 767 l 92 778 q 60 801 72 785 q 47 839 47 818 q 65 883 47 865 q 111 901 83 901 l 156 901 q 200 883 182 901 q 218 839 218 865 l 218 772 q 195 697 218 731 q 135 647 172 663 q 87 647 111 636 q 53 681 63 657 q 52 729 42 706 q 86 764 63 753 z "},"'":{"ha":267,"x_min":67,"x_max":200,"o":"m 200 706 q 181 658 200 678 q 133 639 161 639 q 86 658 106 639 q 67 706 67 678 l 67 844 q 86 892 67 872 q 133 911 106 911 q 181 892 161 911 q 200 844 200 872 l 200 706 l 200 706 z "},"·":{"ha":267,"x_min":53,"x_max":214,"o":"m 133 619 q 190 596 167 619 q 214 539 214 572 q 190 482 214 506 q 133 458 167 458 q 76 482 100 458 q 53 539 53 506 q 76 596 53 572 q 133 619 100 619 z "},";":{"ha":267,"x_min":42,"x_max":219,"o":"m 156 129 q 201 111 182 129 q 219 67 219 93 l 219 0 q 197 -76 219 -42 q 136 -125 174 -110 q 88 -126 111 -136 q 53 -92 64 -115 q 52 -43 42 -67 q 88 -8 63 -19 q 93 0 93 -6 l 93 6 q 61 29 74 13 q 49 67 49 46 q 67 111 49 93 q 111 129 85 129 l 156 129 m 53 581 q 76 638 53 614 q 133 661 100 661 q 190 638 167 661 q 214 581 214 614 q 190 524 214 547 q 133 500 167 500 q 76 524 100 500 q 53 581 53 547 z "},":":{"ha":267,"x_min":53,"x_max":214,"o":"m 133 -28 q 76 -4 100 -28 q 53 53 53 19 q 76 110 53 86 q 133 133 100 133 q 190 110 167 133 q 214 53 214 86 q 190 -4 214 19 q 133 -28 167 -28 m 133 500 q 76 524 100 500 q 53 581 53 547 q 76 638 53 614 q 133 661 100 661 q 190 638 167 661 q 214 581 214 614 q 190 524 214 547 q 133 500 167 500 z "},",":{"ha":267,"x_min":42,"x_max":219,"o":"m 88 -8 q 93 0 93 -6 l 93 6 q 61 29 74 13 q 49 67 49 46 q 67 111 49 93 q 111 129 85 129 l 156 129 q 201 111 182 129 q 219 67 219 93 l 219 0 q 197 -76 219 -42 q 136 -125 174 -110 q 88 -126 111 -136 q 53 -92 64 -115 q 52 -43 42 -67 q 88 -8 63 -19 z "},"…":{"ha":800,"x_min":42,"x_max":758,"o":"m 122 133 q 179 110 156 133 q 203 53 203 86 q 179 -4 203 19 q 122 -28 156 -28 q 65 -4 89 -28 q 42 53 42 19 q 65 110 42 86 q 122 133 89 133 m 319 53 q 343 110 319 86 q 400 133 367 133 q 457 110 433 133 q 481 53 481 86 q 457 -4 481 19 q 400 -28 433 -28 q 343 -4 367 -28 q 319 53 319 19 m 597 53 q 621 110 597 86 q 678 133 644 133 q 735 110 711 133 q 758 53 758 86 q 735 -4 758 19 q 678 -28 711 -28 q 621 -4 644 -28 q 597 53 597 19 z "},"»":{"ha":582,"x_min":60,"x_max":547,"o":"m 310 233 q 318 265 310 250 q 349 319 333 294 q 374 365 361 342 q 396 406 386 389 q 374 442 386 421 q 351 485 363 464 q 324 535 338 510 q 315 567 315 549 q 350 625 315 606 q 401 631 374 639 q 440 599 428 622 l 529 438 q 529 372 547 404 l 435 201 q 395 169 422 178 q 344 175 368 161 q 310 233 310 194 m 94 175 q 60 233 60 194 q 68 265 60 250 q 99 319 83 294 q 124 365 111 342 q 146 406 136 389 q 124 442 136 421 q 101 485 113 464 q 74 535 88 510 q 65 567 65 549 q 100 625 65 606 q 151 631 124 639 q 190 599 178 622 l 279 438 q 279 372 297 404 l 185 201 q 145 169 172 178 q 94 175 118 161 z "},"«":{"ha":582,"x_min":35,"x_max":522,"o":"m 517 567 q 508 535 517 549 q 481 485 494 510 q 458 442 469 464 q 438 406 446 421 q 459 365 446 389 q 485 319 472 342 q 514 265 500 294 q 522 233 522 250 q 489 175 522 194 q 438 169 464 161 q 397 201 411 178 l 303 372 q 303 438 285 404 l 392 599 q 432 631 406 622 q 483 625 458 639 q 517 567 517 606 m 53 372 q 53 438 35 404 l 142 599 q 182 631 156 622 q 233 625 208 639 q 267 567 267 606 q 258 535 267 549 q 231 485 244 510 q 208 442 219 464 q 188 406 196 421 q 209 365 196 389 q 235 319 222 342 q 264 265 250 294 q 272 233 272 250 q 239 175 272 194 q 188 169 214 161 q 147 201 161 178 l 53 372 z "},"›":{"ha":332,"x_min":60,"x_max":297,"o":"m 60 233 q 68 265 60 250 q 99 319 83 294 q 124 365 111 342 q 146 406 136 389 q 124 442 136 421 q 101 485 113 464 q 74 535 88 510 q 65 567 65 549 q 100 625 65 606 q 151 631 124 639 q 190 599 178 622 l 279 438 q 279 372 297 404 l 185 201 q 145 169 172 178 q 94 175 118 161 q 60 233 60 194 z "},"‹":{"ha":332,"x_min":35,"x_max":272,"o":"m 267 567 q 258 535 267 549 q 231 485 244 510 q 208 442 219 464 q 188 406 196 421 q 209 365 196 389 q 235 319 222 342 q 264 265 250 294 q 272 233 272 250 q 239 175 272 194 q 188 169 214 161 q 147 201 161 178 l 53 372 q 53 438 35 404 l 142 599 q 182 631 156 622 q 233 625 208 639 q 267 567 267 606 z "},"}":{"ha":356,"x_min":0,"x_max":356,"o":"m 111 344 q 150 456 111 408 q 111 567 111 503 l 111 844 q 98 876 111 864 q 67 889 85 889 q 19 908 39 889 q 0 956 0 928 q 19 1003 0 983 q 67 1022 39 1022 q 135 1008 103 1022 q 192 970 168 994 q 231 914 217 946 q 244 844 244 882 l 244 567 q 257 535 244 547 q 289 522 269 522 q 336 503 317 522 q 356 456 356 483 q 336 408 356 428 q 289 389 317 389 q 257 376 269 389 q 244 344 244 364 l 244 39 q 231 -31 244 1 q 192 -87 217 -62 q 135 -125 168 -111 q 67 -139 103 -139 q 19 -119 39 -139 q 0 -72 0 -100 q 19 -25 0 -44 q 67 -6 39 -6 q 98 7 85 -6 q 111 39 111 19 l 111 344 z "},"]":{"ha":356,"x_min":11,"x_max":283,"o":"m 217 1017 q 264 997 244 1017 q 283 950 283 978 l 283 -67 q 264 -114 283 -94 q 217 -133 244 -133 l 78 -133 q 31 -114 50 -133 q 11 -67 11 -94 q 31 -19 11 -39 q 78 0 50 0 l 150 0 l 150 883 l 78 883 q 31 903 50 883 q 11 950 11 922 q 31 997 11 978 q 78 1017 50 1017 l 217 1017 l 217 1017 z "},")":{"ha":374,"x_min":3,"x_max":317,"o":"m 317 456 q 268 165 317 308 q 125 -100 221 24 q 81 -125 108 -122 q 32 -111 54 -128 q 6 -66 10 -93 q 19 -17 3 -39 q 143 208 101 88 q 183 456 183 329 q 143 703 183 579 q 19 928 101 824 q 6 977 3 950 q 32 1022 10 1004 q 81 1035 54 1039 q 125 1011 108 1032 q 268 746 221 888 q 317 456 317 603 z "},"(":{"ha":372,"x_min":56,"x_max":369,"o":"m 351 -31 q 366 -80 369 -53 q 340 -125 363 -107 q 291 -139 318 -142 q 247 -114 264 -136 q 103 151 153 8 q 56 442 56 292 q 103 732 56 592 q 247 997 153 875 q 291 1022 264 1018 q 340 1008 318 1025 q 366 963 363 990 q 351 914 369 936 q 281 807 311 863 q 229 689 250 751 q 189 442 189 565 q 229 194 189 315 q 281 76 250 132 q 351 -31 311 21 z "},"[":{"ha":356,"x_min":72,"x_max":344,"o":"m 139 -133 q 92 -114 111 -133 q 72 -67 72 -94 l 72 950 q 92 997 72 978 q 139 1017 111 1017 l 278 1017 q 325 997 306 1017 q 344 950 344 978 q 325 903 344 922 q 278 883 306 883 l 206 883 l 206 0 l 278 0 q 325 -19 306 0 q 344 -67 344 -39 q 325 -114 344 -94 q 278 -133 306 -133 l 139 -133 l 139 -133 z "},"{":{"ha":356,"x_min":0,"x_max":356,"o":"m 244 567 q 234 507 244 535 q 206 456 224 479 q 234 404 224 432 q 244 344 244 376 l 244 39 q 257 7 244 19 q 289 -6 269 -6 q 336 -25 317 -6 q 356 -72 356 -44 q 336 -119 356 -100 q 289 -139 317 -139 q 219 -125 251 -139 q 163 -87 188 -111 q 125 -31 139 -62 q 111 39 111 1 l 111 344 q 99 376 111 364 q 67 389 86 389 q 19 408 39 389 q 0 456 0 428 q 19 503 0 483 q 67 522 39 522 q 99 535 86 522 q 111 567 111 547 l 111 844 q 125 914 111 882 q 163 970 139 946 q 219 1008 188 994 q 289 1022 251 1022 q 336 1003 317 1022 q 356 956 356 983 q 336 908 356 928 q 289 889 317 889 q 257 876 269 889 q 244 844 244 864 l 244 567 z "},"¸":{"ha":694,"x_min":222,"x_max":417,"o":"m 283 39 q 303 86 283 67 q 350 106 322 106 q 397 86 378 106 q 417 39 417 67 l 417 -46 q 393 -135 417 -94 q 328 -200 369 -176 q 278 -207 304 -214 q 238 -176 251 -200 q 230 -126 222 -153 q 261 -85 238 -99 q 283 -46 283 -71 l 283 39 l 283 39 z "},"˜":{"ha":694,"x_min":163,"x_max":532,"o":"m 268 878 q 375 851 326 889 l 386 843 q 407 839 397 836 q 425 850 418 839 q 462 874 439 869 q 504 867 485 879 q 528 830 524 853 q 519 788 532 807 q 479 749 504 764 q 426 728 454 733 q 319 754 368 717 l 308 763 q 288 767 297 769 q 279 765 285 767 q 269 756 274 763 q 234 731 257 736 q 192 739 211 726 q 167 776 172 753 q 175 818 163 799 q 268 878 211 867 z "},"¨":{"ha":694,"x_min":160,"x_max":535,"o":"m 382 803 q 404 857 382 835 q 458 879 426 879 q 513 857 490 879 q 535 803 535 835 q 513 749 535 771 q 458 726 490 726 q 404 749 426 726 q 382 803 382 771 m 236 879 q 290 857 268 879 q 313 803 313 835 q 290 749 313 771 q 236 726 268 726 q 182 749 204 726 q 160 803 160 771 q 182 857 160 835 q 236 879 204 879 z "},"ˆ":{"ha":694,"x_min":164,"x_max":532,"o":"m 257 703 q 215 690 238 688 q 178 713 193 693 q 167 754 164 732 q 188 792 169 776 l 313 889 q 347 900 328 900 q 382 889 367 900 l 507 792 q 529 754 526 776 q 517 713 532 732 q 480 690 503 693 q 438 703 457 688 q 406 728 421 715 q 376 751 392 739 q 347 774 361 763 q 318 751 333 763 q 289 728 303 739 q 257 703 274 715 z "},"`":{"ha":694,"x_min":218,"x_max":478,"o":"m 233 913 q 274 932 250 931 q 318 917 299 933 l 457 792 q 476 751 475 775 q 461 707 478 726 q 420 688 444 689 q 378 703 396 686 l 239 828 q 219 869 219 844 q 233 913 218 893 z "},"´":{"ha":694,"x_min":218,"x_max":478,"o":"m 378 917 q 420 932 396 933 q 461 913 444 931 q 477 869 478 893 q 457 828 476 844 l 318 703 q 275 688 300 686 q 235 707 250 689 q 219 751 218 726 q 239 792 219 775 l 378 917 l 378 917 z "},"<":{"ha":578,"x_min":44,"x_max":511,"o":"m 511 678 q 486 626 511 647 q 382 539 432 582 q 292 464 339 503 q 215 400 246 425 q 292 335 246 374 q 382 261 339 297 q 486 174 432 218 q 511 122 511 153 q 496 79 511 99 q 450 56 478 58 q 401 71 422 53 l 68 349 q 44 400 44 368 q 68 451 44 432 l 401 729 q 450 744 422 747 q 496 721 478 742 q 511 678 511 701 z "},">":{"ha":578,"x_min":67,"x_max":533,"o":"m 67 122 q 90 174 67 153 q 196 261 144 218 l 363 400 q 285 464 331 425 q 196 539 240 503 q 90 626 144 582 q 67 678 67 647 q 82 721 67 701 q 127 744 100 742 q 176 729 154 747 l 510 451 q 533 400 533 432 q 510 349 533 368 l 176 71 q 127 56 154 53 q 82 79 100 58 q 67 122 67 99 z "},"=":{"ha":578,"x_min":56,"x_max":522,"o":"m 456 356 q 503 336 483 356 q 522 289 522 317 q 503 242 522 261 q 456 222 483 222 l 122 222 q 75 242 94 222 q 56 289 56 261 q 75 336 56 317 q 122 356 94 356 l 456 356 m 456 578 q 503 558 483 578 q 522 511 522 539 q 503 464 522 483 q 456 444 483 444 l 122 444 q 75 464 94 444 q 56 511 56 483 q 75 558 56 539 q 122 578 94 578 l 456 578 z "},"×":{"ha":578,"x_min":83,"x_max":494,"o":"m 475 308 q 494 261 494 289 q 475 214 494 233 q 428 194 456 194 q 381 214 400 194 l 289 306 l 197 214 q 150 194 178 194 q 103 214 122 194 q 83 261 83 233 q 103 308 83 289 l 194 400 l 103 492 q 83 539 83 511 q 103 586 83 567 q 150 606 122 606 q 197 586 178 606 l 289 494 l 381 586 q 428 606 400 606 q 475 586 456 606 q 494 539 494 567 q 475 492 494 511 l 383 400 l 475 308 l 475 308 z "},"÷":{"ha":578,"x_min":56,"x_max":522,"o":"m 208 219 q 232 276 208 253 q 289 300 256 300 q 346 276 322 300 q 369 219 369 253 q 346 163 369 186 q 289 139 322 139 q 232 163 256 139 q 208 219 208 186 m 289 500 q 232 524 256 500 q 208 581 208 547 q 232 638 208 614 q 289 661 256 661 q 346 638 322 661 q 369 581 369 614 q 346 524 369 547 q 289 500 322 500 m 522 400 q 503 353 522 372 q 456 333 483 333 l 122 333 q 75 353 94 333 q 56 400 56 372 q 75 447 56 428 q 122 467 94 467 l 456 467 q 503 447 483 467 q 522 400 522 428 z "},"±":{"ha":578,"x_min":56,"x_max":522,"o":"m 456 111 q 503 92 483 111 q 522 44 522 72 q 503 -3 522 17 q 456 -22 483 -22 l 122 -22 q 75 -3 94 -22 q 56 44 56 17 q 75 92 56 72 q 122 111 94 111 l 456 111 m 456 467 q 503 447 483 467 q 522 400 522 428 q 503 353 522 372 q 456 333 483 333 l 356 333 l 356 233 q 336 186 356 206 q 289 167 317 167 q 242 186 261 167 q 222 233 222 206 l 222 333 l 122 333 q 75 353 94 333 q 56 400 56 372 q 75 447 56 428 q 122 467 94 467 l 222 467 l 222 567 q 242 614 222 594 q 289 633 261 633 q 336 614 317 633 q 356 567 356 594 l 356 467 l 456 467 z "},"¬":{"ha":578,"x_min":56,"x_max":522,"o":"m 456 467 q 503 447 483 467 q 522 400 522 428 l 522 233 q 503 186 522 206 q 456 167 483 167 q 408 186 428 167 q 389 233 389 206 l 389 333 l 122 333 q 75 353 94 333 q 56 400 56 372 q 75 447 56 428 q 122 467 94 467 l 456 467 l 456 467 z "},"^":{"ha":694,"x_min":60,"x_max":635,"o":"m 85 544 q 62 590 64 563 q 78 639 60 618 l 297 889 q 347 911 317 911 q 397 889 378 911 l 617 639 q 633 590 635 618 q 610 544 631 563 q 562 527 589 525 q 515 550 535 529 q 454 621 485 585 q 399 684 428 651 q 347 743 369 717 q 295 684 324 717 q 240 621 267 651 q 179 550 210 585 q 133 527 160 529 q 85 544 106 525 z "},"+":{"ha":578,"x_min":56,"x_max":522,"o":"m 456 467 q 503 447 483 467 q 522 400 522 428 q 503 353 522 372 q 456 333 483 333 l 356 333 l 356 233 q 336 186 356 206 q 289 167 317 167 q 242 186 261 167 q 222 233 222 206 l 222 333 l 122 333 q 75 353 94 333 q 56 400 56 372 q 75 447 56 428 q 122 467 94 467 l 222 467 l 222 567 q 242 614 222 594 q 289 633 261 633 q 336 614 317 633 q 356 567 356 594 l 356 467 l 456 467 l 456 467 z "},"°":{"ha":435,"x_min":33,"x_max":403,"o":"m 403 719 q 388 647 403 681 q 349 589 374 614 q 290 549 324 564 q 218 535 256 535 q 146 549 179 535 q 88 589 113 564 q 48 647 63 614 q 33 719 33 681 q 48 791 33 757 q 88 850 63 825 q 146 890 113 875 q 218 904 179 904 q 290 890 256 904 q 349 850 324 875 q 388 791 374 825 q 403 719 403 757 m 153 719 q 172 673 153 692 q 218 654 190 654 q 265 673 246 654 q 283 719 283 692 q 265 766 283 747 q 218 785 246 785 q 172 766 190 785 q 153 719 153 747 z "},"¦":{"ha":289,"x_min":78,"x_max":211,"o":"m 144 383 q 192 364 172 383 q 211 317 211 344 l 211 -239 q 192 -286 211 -267 q 144 -306 172 -306 q 97 -286 117 -306 q 78 -239 78 -267 l 78 317 q 97 364 78 344 q 144 383 117 383 m 144 1217 q 192 1197 172 1217 q 211 1150 211 1178 l 211 594 q 192 547 211 567 q 144 528 172 528 q 97 547 117 528 q 78 594 78 567 l 78 1150 q 97 1197 78 1178 q 144 1217 117 1217 z "},"|":{"ha":289,"x_min":85,"x_max":218,"o":"m 151 1217 q 199 1197 179 1217 q 218 1150 218 1178 l 218 -239 q 199 -286 218 -267 q 151 -306 179 -306 q 104 -286 124 -306 q 85 -239 85 -267 l 85 1150 q 104 1197 85 1178 q 151 1217 124 1217 z "},"\\":{"ha":578,"x_min":50,"x_max":529,"o":"m 518 6 q 517 -45 529 -21 q 479 -79 506 -69 q 428 -77 453 -89 q 393 -39 403 -65 l 60 878 q 62 928 50 903 q 100 963 74 953 q 151 960 126 972 q 185 922 175 949 l 518 6 z "},"/":{"ha":578,"x_min":50,"x_max":529,"o":"m 479 963 q 517 928 506 953 q 518 878 529 903 l 185 -39 q 151 -77 175 -65 q 100 -79 126 -89 q 62 -45 74 -69 q 60 6 50 -21 l 393 922 q 428 960 403 949 q 479 963 453 972 z "},"¯":{"ha":694,"x_min":-67,"x_max":761,"o":"m 694 1106 q 742 1086 722 1106 q 761 1039 761 1067 q 742 992 761 1011 q 694 972 722 972 l 0 972 q -47 992 -28 972 q -67 1039 -67 1011 q -47 1086 -67 1067 q 0 1106 -28 1106 l 694 1106 l 694 1106 z "},"_":{"ha":694,"x_min":-67,"x_max":761,"o":"m 694 -89 q 742 -108 722 -89 q 761 -156 761 -128 q 742 -203 761 -183 q 694 -222 722 -222 l 0 -222 q -47 -203 -28 -222 q -67 -156 -67 -183 q -47 -108 -67 -128 q 0 -89 -28 -89 l 694 -89 l 694 -89 z "},"—":{"ha":1389,"x_min":-67,"x_max":1456,"o":"m 0 333 q -47 353 -28 333 q -67 400 -67 372 q -47 447 -67 428 q 0 467 -28 467 l 1389 467 q 1436 447 1417 467 q 1456 400 1456 428 q 1436 353 1456 372 q 1389 333 1417 333 l 0 333 l 0 333 z "},"–":{"ha":694,"x_min":-67,"x_max":761,"o":"m 761 400 q 742 353 761 372 q 694 333 722 333 l 0 333 q -47 353 -28 333 q -67 400 -67 372 q -47 447 -67 428 q 0 467 -28 467 l 694 467 q 742 447 722 467 q 761 400 761 428 z "},"$":{"ha":578,"x_min":69,"x_max":506,"o":"m 421 426 q 481 350 460 394 q 504 256 503 306 q 483 159 504 204 q 425 82 463 114 q 387 56 407 67 q 346 38 367 44 l 346 -17 q 326 -64 346 -44 q 279 -83 307 -83 q 232 -64 251 -83 q 213 -17 213 -44 l 213 38 q 83 140 128 64 q 77 190 69 164 q 108 232 85 217 q 158 238 132 246 q 199 207 185 231 q 263 163 221 169 q 338 183 306 156 q 371 254 371 210 q 361 292 369 274 q 336 324 353 311 l 163 467 q 103 541 124 497 q 82 633 82 585 q 101 726 81 682 q 158 803 121 771 q 194 828 175 818 q 235 846 214 839 l 235 900 q 254 947 235 928 q 301 967 274 967 q 349 947 329 967 q 368 900 368 928 l 368 844 q 439 808 407 833 q 490 746 471 782 q 498 696 506 722 q 467 654 490 669 q 417 648 443 640 q 375 679 390 656 q 315 721 356 714 q 244 701 275 728 q 215 635 213 675 q 246 569 215 596 l 421 426 l 421 426 z "},"¢":{"ha":578,"x_min":103,"x_max":472,"o":"m 453 126 q 472 79 472 107 q 453 32 472 51 q 375 -17 419 -1 l 375 -72 q 356 -119 375 -100 q 308 -139 336 -139 q 261 -119 281 -139 q 242 -72 242 -100 l 242 -17 l 229 -12 q 137 63 171 11 q 103 178 103 115 l 103 456 q 137 570 103 518 q 229 646 171 622 l 242 650 l 242 706 q 261 753 242 733 q 308 772 281 772 q 356 753 336 772 q 375 706 375 733 l 375 650 q 453 601 419 635 q 472 554 472 582 q 453 507 472 526 q 406 488 433 488 q 358 507 378 488 q 308 528 339 528 l 307 528 q 281 522 292 528 q 248 496 260 514 q 236 456 236 478 l 236 178 q 248 138 236 156 q 281 111 260 119 q 307 106 292 106 l 308 106 q 358 126 339 106 q 406 146 378 146 q 453 126 433 146 z "},"£":{"ha":578,"x_min":25,"x_max":550,"o":"m 483 111 q 531 92 511 111 q 550 44 550 72 q 531 -3 550 17 q 483 -22 511 -22 l 94 -22 q 52 -6 71 -22 q 29 33 33 10 q 37 78 25 57 q 72 107 49 99 q 121 144 103 118 q 139 201 139 169 l 139 389 l 94 389 q 47 408 67 389 q 28 456 28 428 q 47 503 28 483 q 94 522 67 522 l 139 522 l 139 706 q 181 831 139 776 q 292 904 224 886 q 424 896 360 922 q 522 808 488 869 q 530 758 538 785 q 499 717 522 732 q 449 710 475 703 q 407 742 422 718 q 373 772 396 763 q 326 775 350 782 q 288 749 303 768 q 272 706 272 729 l 272 522 l 372 522 q 419 503 400 522 q 439 456 439 483 q 419 408 439 428 q 372 389 400 389 l 272 389 l 272 201 q 254 111 272 151 l 483 111 l 483 111 z "},"¥":{"ha":578,"x_min":22,"x_max":556,"o":"m 222 167 l 128 167 q 81 186 100 167 q 61 233 61 206 q 81 281 61 261 q 128 300 100 300 l 222 300 l 222 389 l 128 389 q 81 408 100 389 q 61 456 61 428 q 81 503 61 483 q 128 522 100 522 l 181 522 l 35 814 q 31 865 22 839 q 64 904 40 892 q 115 908 89 917 q 154 874 142 899 l 200 782 q 243 694 219 742 q 289 604 267 647 q 334 694 310 647 q 378 782 358 742 l 424 874 q 463 908 436 899 q 513 904 489 917 q 547 865 538 892 q 543 814 556 839 l 397 522 l 461 522 q 508 503 489 522 q 528 456 528 483 q 508 408 528 428 q 461 389 489 389 l 356 389 l 356 300 l 461 300 q 508 281 489 300 q 528 233 528 261 q 508 186 528 206 q 461 167 489 167 l 356 167 l 356 39 q 336 -8 356 11 q 289 -28 317 -28 q 242 -8 261 -28 q 222 39 222 11 l 222 167 z "},"€":{"ha":578,"x_min":3,"x_max":576,"o":"m 321 774 q 268 738 289 765 q 247 678 247 711 l 247 619 l 403 619 q 450 600 431 619 q 469 553 469 581 q 450 506 469 525 q 403 486 431 486 l 247 486 l 247 397 l 347 397 q 394 378 375 397 q 414 331 414 358 q 394 283 414 303 q 347 264 375 264 l 247 264 l 247 206 q 268 144 247 171 q 321 108 289 118 q 385 113 353 100 q 433 156 417 126 l 447 179 q 488 210 461 203 q 539 204 515 218 q 569 163 563 190 q 563 113 576 136 l 549 89 q 500 29 529 54 q 436 -10 471 4 q 363 -28 401 -25 q 286 -19 324 -31 q 217 12 249 -10 q 162 63 185 33 q 126 129 139 93 q 114 206 114 165 l 114 264 l 69 264 q 22 283 42 264 q 3 331 3 303 q 22 378 3 358 q 69 397 42 397 l 114 397 l 114 486 l 69 486 q 22 506 42 486 q 3 553 3 525 q 22 600 3 581 q 69 619 42 619 l 114 619 l 114 678 q 126 753 114 717 q 162 820 139 790 q 217 872 185 850 q 286 903 249 893 q 363 910 324 913 q 436 894 401 908 q 500 854 471 879 q 549 794 529 829 l 563 771 q 569 720 576 747 q 539 679 563 693 q 488 673 515 665 q 447 704 461 681 l 433 728 q 385 770 417 757 q 321 774 353 783 z "},"&":{"ha":685,"x_min":40,"x_max":676,"o":"m 478 85 q 415 17 454 44 q 328 -22 375 -11 q 234 -24 281 -33 q 147 13 188 -15 q 81 81 107 40 q 49 169 56 121 q 52 263 40 217 q 93 349 64 310 l 194 479 l 110 588 q 106 593 106 593 q 72 699 74 642 q 99 806 71 756 q 177 885 126 857 q 286 911 228 914 q 392 877 344 908 q 464 793 440 846 q 483 683 489 740 q 442 581 478 626 l 363 479 l 457 356 l 474 336 l 499 379 q 540 410 514 403 q 590 401 567 417 q 621 360 614 386 q 614 310 628 333 l 561 222 l 660 93 q 674 44 676 71 q 649 0 671 17 q 599 -13 626 -17 q 554 13 571 -10 l 488 100 l 478 85 m 279 588 l 336 661 q 344 736 363 696 q 281 778 325 775 q 244 769 261 779 q 215 740 226 758 q 206 703 206 724 q 217 667 206 683 l 279 588 m 300 108 q 364 154 342 117 l 400 213 l 351 275 l 279 369 l 199 267 q 179 190 172 232 q 222 122 186 149 q 300 108 258 97 z "},"*":{"ha":578,"x_min":40,"x_max":538,"o":"m 353 526 l 353 428 q 334 383 353 401 q 289 364 315 364 q 244 383 263 364 q 226 428 226 401 l 226 526 l 140 478 q 92 470 117 464 q 54 500 67 476 q 47 549 40 524 q 76 586 54 574 l 163 636 l 76 686 q 47 724 54 699 q 54 772 40 749 q 92 801 67 794 q 140 794 117 808 l 226 746 l 226 844 q 244 889 226 871 q 289 907 263 907 q 334 889 315 907 q 353 844 353 871 l 353 746 l 438 794 q 486 801 461 808 q 524 772 511 794 q 531 724 538 749 q 501 686 524 699 l 415 636 l 501 586 q 531 549 524 574 q 524 500 538 524 q 486 470 511 476 q 438 478 461 464 l 353 526 z "},"‰":{"ha":1240,"x_min":32,"x_max":1208,"o":"m 1024 349 q 1095 334 1061 349 q 1154 294 1129 319 q 1194 235 1179 269 q 1208 164 1208 201 q 1194 92 1208 125 q 1154 33 1179 58 q 1095 -6 1129 8 q 1024 -21 1061 -21 q 951 -6 985 -21 q 892 33 917 8 q 852 92 867 58 q 838 164 838 125 q 852 235 838 201 q 892 294 867 269 q 951 334 917 319 q 1024 349 985 349 m 1024 99 q 1069 117 1050 99 q 1088 164 1088 136 q 1069 210 1088 192 q 1024 229 1050 229 q 977 210 996 229 q 958 164 958 192 q 977 117 958 136 q 1024 99 996 99 m 607 349 q 678 334 644 349 q 738 294 713 319 q 777 235 763 269 q 792 164 792 201 q 777 92 792 125 q 738 33 763 58 q 678 -6 713 8 q 607 -21 644 -21 q 534 -6 568 -21 q 475 33 500 8 q 435 92 450 58 q 421 164 421 125 q 435 235 421 201 q 475 294 450 269 q 534 334 500 319 q 607 349 568 349 m 607 99 q 652 117 633 99 q 671 164 671 136 q 652 210 671 192 q 607 229 633 229 q 560 210 579 229 q 542 164 542 192 q 560 117 542 136 q 607 99 579 99 m 403 719 q 388 647 403 681 q 349 589 374 614 q 290 549 324 564 q 218 535 256 535 q 145 549 179 535 q 86 589 111 564 q 47 647 61 614 q 32 719 32 681 q 47 791 32 757 q 86 850 61 825 q 145 890 111 875 q 218 904 179 904 q 290 890 256 904 q 349 850 324 875 q 388 791 374 825 q 403 719 403 757 m 153 719 q 172 673 153 692 q 218 654 190 654 q 263 673 244 654 q 282 719 282 692 q 263 766 282 747 q 218 785 244 785 q 172 766 190 785 q 153 719 153 747 m 636 904 q 669 867 660 893 q 667 815 678 840 l 278 10 q 240 -24 265 -15 q 189 -21 214 -33 q 155 17 164 -10 q 157 68 146 43 l 546 874 q 585 908 558 899 q 636 904 611 917 z "},"%":{"ha":824,"x_min":33,"x_max":792,"o":"m 607 349 q 678 334 644 349 q 738 294 713 319 q 777 235 763 269 q 792 164 792 201 q 777 92 792 125 q 738 33 763 58 q 678 -6 713 8 q 607 -21 644 -21 q 535 -6 568 -21 q 476 33 501 8 q 437 92 451 58 q 422 164 422 125 q 437 235 422 201 q 476 294 451 269 q 535 334 501 319 q 607 349 568 349 m 607 99 q 653 117 635 99 q 672 164 672 136 q 653 210 672 192 q 607 229 635 229 q 560 210 579 229 q 542 164 542 192 q 560 117 542 136 q 607 99 579 99 m 403 719 q 388 647 403 681 q 349 589 374 614 q 290 549 324 564 q 218 535 256 535 q 146 549 179 535 q 88 589 113 564 q 48 647 63 614 q 33 719 33 681 q 48 791 33 757 q 88 850 63 825 q 146 890 113 875 q 218 904 179 904 q 290 890 256 904 q 349 850 324 875 q 388 791 374 825 q 403 719 403 757 m 153 719 q 172 673 153 692 q 218 654 190 654 q 265 673 246 654 q 283 719 283 692 q 265 766 283 747 q 218 785 246 785 q 172 766 190 785 q 153 719 153 747 m 636 904 q 670 867 661 893 q 667 815 679 840 l 278 10 q 240 -24 267 -15 q 189 -21 214 -33 q 155 17 164 -10 q 158 68 146 43 l 547 874 q 585 908 558 899 q 636 904 611 917 z "},"#":{"ha":636,"x_min":6,"x_max":632,"o":"m 493 503 l 493 407 l 568 407 q 613 389 594 407 q 632 344 632 371 q 613 299 632 318 q 568 281 594 281 l 493 281 l 493 39 q 474 -6 493 13 q 429 -25 456 -25 q 385 -6 403 -25 q 367 39 367 13 l 367 281 l 271 281 l 271 39 q 252 -6 271 13 q 207 -25 233 -25 q 163 -6 181 -25 q 144 39 144 13 l 144 281 l 68 281 q 24 299 42 281 q 6 344 6 318 q 24 389 6 371 q 68 407 42 407 l 144 407 l 144 503 l 68 503 q 24 522 42 503 q 6 567 6 540 q 24 611 6 593 q 68 629 42 629 l 144 629 l 144 844 q 163 889 144 871 q 207 907 181 907 q 252 889 233 907 q 271 844 271 871 l 271 629 l 367 629 l 367 844 q 385 889 367 871 q 429 907 403 907 q 474 889 456 907 q 493 844 493 871 l 493 629 l 568 629 q 613 611 594 629 q 632 567 632 593 q 613 522 632 540 q 568 503 594 503 l 493 503 m 367 503 l 271 503 l 271 407 l 367 407 l 367 503 z "},"¶":{"ha":667,"x_min":26,"x_max":667,"o":"m 603 901 q 648 883 629 901 q 667 839 667 865 q 648 794 667 813 q 603 775 629 775 l 569 775 l 569 -72 q 551 -117 569 -99 q 506 -136 532 -136 q 461 -117 479 -136 q 443 -72 443 -99 l 443 775 l 375 775 l 375 -72 q 356 -117 375 -99 q 311 -136 338 -136 q 267 -117 285 -136 q 249 -72 249 -99 l 249 443 q 162 463 203 444 q 91 512 121 481 q 44 585 61 543 q 26 672 26 626 q 44 761 26 719 q 94 834 63 803 q 167 883 125 865 q 256 901 208 901 l 603 901 m 153 672 q 181 602 153 632 q 249 569 208 572 l 249 775 q 181 742 208 772 q 153 672 153 713 z "},"ƒ":{"ha":694,"x_min":-12,"x_max":706,"o":"m 589 933 q 686 879 644 921 q 706 832 706 860 q 686 785 706 804 q 640 765 667 765 q 593 785 613 765 q 558 804 578 800 q 519 801 539 808 q 469 744 476 788 l 456 656 l 517 656 q 564 636 544 656 q 583 589 583 617 q 564 542 583 561 q 517 522 544 522 l 436 522 l 356 7 q 308 -94 347 -49 q 217 -157 274 -137 q 104 -161 161 -174 q 7 -107 49 -149 q -12 -60 -12 -87 q 7 -12 -12 -32 q 54 7 26 7 q 101 -12 82 7 q 175 -29 133 -44 q 208 -7 194 -22 q 224 28 221 8 l 300 522 l 239 522 q 192 542 211 522 q 172 589 172 561 q 192 636 172 617 q 239 656 211 656 l 321 656 l 338 765 q 385 867 349 825 q 478 929 422 910 q 589 933 533 946 z "},"†":{"ha":583,"x_min":58,"x_max":525,"o":"m 458 656 q 506 636 486 656 q 525 589 525 617 q 506 542 525 561 q 458 522 486 522 l 358 522 l 358 -72 q 339 -119 358 -100 q 292 -139 319 -139 q 244 -119 264 -139 q 225 -72 225 -100 l 225 522 l 125 522 q 78 542 97 522 q 58 589 58 561 q 78 636 58 617 q 125 656 97 656 l 225 656 l 225 844 q 244 892 225 872 q 292 911 264 911 q 339 892 319 911 q 358 844 358 872 l 358 656 l 458 656 l 458 656 z "},"‡":{"ha":583,"x_min":58,"x_max":525,"o":"m 358 522 l 358 250 l 458 250 q 506 231 486 250 q 525 183 525 211 q 506 136 525 156 q 458 117 486 117 l 358 117 l 358 -72 q 339 -119 358 -100 q 292 -139 319 -139 q 244 -119 264 -139 q 225 -72 225 -100 l 225 117 l 125 117 q 78 136 97 117 q 58 183 58 156 q 78 231 58 211 q 125 250 97 250 l 225 250 l 225 522 l 125 522 q 78 542 97 522 q 58 589 58 561 q 78 636 58 617 q 125 656 97 656 l 225 656 l 225 844 q 244 892 225 872 q 292 911 264 911 q 339 892 319 911 q 358 844 358 872 l 358 656 l 458 656 q 506 636 486 656 q 525 589 525 617 q 506 542 525 561 q 458 522 486 522 l 358 522 z "},"Š":{"ha":538,"x_min":35,"x_max":500,"o":"m 429 381 q 483 294 465 343 q 496 194 500 246 q 468 97 493 142 q 401 21 443 53 q 310 -22 361 -11 q 210 -24 260 -33 q 117 17 158 -12 q 49 92 75 47 q 42 142 35 115 q 74 183 50 169 q 124 190 97 197 q 164 158 150 182 q 236 107 188 118 q 321 128 285 99 q 364 204 360 156 q 358 249 365 228 q 333 288 350 271 l 111 515 q 60 599 76 551 q 46 696 43 646 q 74 790 50 746 q 139 864 99 833 q 228 906 179 894 q 325 907 276 917 q 415 867 374 896 q 481 794 456 839 q 488 744 496 771 q 457 703 481 718 q 407 697 433 689 q 365 728 381 704 q 299 776 344 765 q 219 757 254 785 q 179 685 183 732 q 207 608 176 640 l 429 381 m 192 1169 q 222 1146 207 1158 q 250 1124 235 1135 q 279 1101 265 1113 q 308 1124 293 1113 q 336 1146 322 1135 q 367 1169 351 1158 q 411 1182 386 1185 q 451 1160 436 1179 q 464 1115 467 1140 q 442 1075 461 1090 l 317 978 q 279 965 300 965 q 242 978 258 965 l 117 1075 q 94 1115 97 1090 q 107 1160 92 1140 q 147 1182 122 1179 q 192 1169 172 1185 z "},"Ž":{"ha":533,"x_min":33,"x_max":500,"o":"m 500 839 q 494 813 500 824 q 369 515 426 653 q 319 397 344 457 q 272 282 294 336 q 230 183 249 228 q 200 111 211 138 l 433 111 q 481 92 461 111 q 500 44 500 72 q 481 -3 500 17 q 433 -22 461 -22 l 100 -22 q 44 7 65 -22 q 33 44 33 25 q 39 71 33 60 q 163 367 104 229 q 213 486 188 425 q 260 601 238 547 q 303 700 283 656 q 333 772 322 744 l 100 772 q 53 792 72 772 q 33 839 33 811 q 53 886 33 867 q 100 906 72 906 l 433 906 q 489 876 468 906 q 500 839 500 858 m 354 1169 q 399 1182 374 1185 q 439 1160 424 1179 q 451 1115 454 1140 q 429 1075 449 1090 l 304 978 q 267 965 288 965 q 229 978 246 965 l 104 1075 q 82 1115 85 1090 q 94 1160 79 1140 q 135 1182 110 1179 q 179 1169 160 1185 q 210 1146 194 1158 q 238 1124 222 1135 q 267 1101 253 1113 q 295 1124 281 1113 q 324 1146 310 1135 q 354 1169 339 1158 z "},"š":{"ha":457,"x_min":36,"x_max":418,"o":"m 326 328 q 384 264 363 301 q 408 182 406 226 q 395 97 411 138 q 346 26 379 57 q 272 -15 314 -3 q 186 -21 231 -28 q 106 10 142 -14 q 49 74 71 35 q 42 121 36 96 q 71 158 49 146 q 119 165 94 171 q 157 136 144 158 q 206 103 172 107 q 261 119 236 97 q 283 174 286 140 q 256 225 281 208 l 125 315 q 69 377 90 340 q 46 457 49 414 q 59 540 43 500 q 107 608 75 579 q 179 649 139 636 q 263 654 219 661 q 339 624 304 647 q 396 563 374 600 q 402 515 408 540 q 372 478 396 490 q 325 472 350 465 q 288 500 300 478 q 243 531 272 526 q 192 515 215 536 q 171 465 168 496 q 197 418 174 436 l 326 328 m 324 889 q 365 901 343 904 q 403 879 388 897 q 415 838 418 860 q 393 800 411 815 l 268 703 q 233 692 253 692 q 199 703 214 692 l 74 800 q 51 838 54 815 q 64 879 49 860 q 101 901 79 897 q 143 889 124 904 q 175 864 160 876 q 204 841 189 853 q 233 818 219 829 q 263 841 247 829 q 292 864 278 853 q 324 889 307 876 z "},"ž":{"ha":478,"x_min":38,"x_max":440,"o":"m 440 589 q 433 560 440 576 q 342 381 386 467 q 303 306 322 344 q 265 231 283 267 q 230 163 246 194 q 201 107 214 131 l 378 107 q 422 89 404 107 q 440 44 440 71 q 422 0 440 18 q 378 -18 404 -18 l 100 -18 q 47 11 65 -18 q 38 44 38 26 q 44 72 38 58 q 136 251 92 165 q 174 326 154 288 q 213 401 194 365 q 247 470 231 438 q 275 526 263 503 l 100 526 q 56 544 74 526 q 38 589 38 563 q 56 633 38 615 q 100 651 74 651 l 378 651 q 431 621 413 651 q 440 589 440 607 m 79 800 q 57 838 60 815 q 69 879 54 860 q 107 901 85 897 q 149 889 129 904 q 181 864 165 876 q 210 841 194 853 q 239 818 225 829 q 268 841 253 829 q 297 864 283 853 q 329 889 313 876 q 371 901 349 904 q 408 879 393 897 q 420 838 424 860 q 399 800 417 815 l 274 703 q 239 692 258 692 q 204 703 219 692 l 79 800 z "},"Ł":{"ha":521,"x_min":-21,"x_max":504,"o":"m 438 111 q 485 92 465 111 q 504 44 504 72 q 485 -3 504 17 q 438 -22 465 -22 l 160 -22 q 113 -3 132 -22 q 93 44 93 17 l 93 340 l 85 335 q 35 328 61 321 q -7 360 8 336 q -13 410 -21 383 q 18 450 -6 436 l 93 494 l 93 844 q 113 892 93 872 q 160 911 132 911 q 207 892 188 911 q 226 844 226 872 l 226 571 l 271 597 q 321 603 294 611 q 361 572 347 596 q 369 522 376 549 q 338 481 361 496 l 226 417 l 226 111 l 438 111 l 438 111 z "},"ł":{"ha":331,"x_min":-10,"x_max":340,"o":"m 242 572 q 290 578 265 585 q 328 549 314 572 q 334 501 340 526 q 304 464 328 476 l 228 419 l 228 135 q 251 93 228 107 q 281 55 275 79 q 275 7 288 31 q 237 -22 261 -15 q 189 -15 213 -28 q 126 49 149 8 q 103 135 103 89 l 103 347 l 88 339 q 40 333 65 326 q 3 361 15 339 q -3 409 -10 385 q 25 447 3 433 l 103 492 l 103 872 q 121 917 103 899 q 165 935 139 935 q 210 917 192 935 q 228 872 228 899 l 228 564 l 242 572 l 242 572 z "},"µ":{"ha":556,"x_min":76,"x_max":479,"o":"m 417 657 q 461 639 443 657 q 479 594 479 621 l 479 39 q 461 -6 479 13 q 417 -24 443 -24 q 369 -1 388 -24 q 278 -24 325 -24 q 201 -8 239 -24 l 201 -239 q 183 -283 201 -265 q 139 -301 165 -301 q 94 -283 113 -301 q 76 -239 76 -265 l 76 594 q 94 639 76 621 q 139 657 113 657 q 183 639 165 657 q 201 594 201 621 l 201 178 q 224 124 201 146 q 278 101 246 101 q 332 124 310 101 q 354 178 354 146 l 354 594 q 372 639 354 621 q 417 657 390 657 z "},"¾":{"ha":872,"x_min":24,"x_max":846,"o":"m 329 525 q 297 430 329 472 q 213 374 265 388 q 112 379 161 358 q 36 446 63 400 q 30 492 24 468 q 58 528 36 515 q 103 534 79 540 q 140 507 128 528 q 182 489 154 482 q 202 502 194 492 q 210 525 210 513 l 210 553 q 199 579 210 568 q 172 590 188 590 q 130 608 147 590 q 113 650 113 625 q 130 692 113 675 q 172 710 147 710 q 204 729 193 710 q 204 765 215 747 q 172 785 193 785 q 140 765 151 785 q 103 738 128 744 q 58 743 79 732 q 30 780 36 756 q 36 826 24 804 q 94 883 57 863 q 172 904 131 904 q 251 883 214 904 q 308 826 288 863 q 329 747 329 790 q 308 668 329 704 q 302 659 306 664 q 296 650 299 654 q 329 553 329 608 l 329 525 m 786 210 q 828 192 811 210 q 846 150 846 175 q 828 108 846 125 q 786 90 811 90 l 774 90 l 774 39 q 756 -3 774 14 q 714 -21 739 -21 q 672 -3 689 -21 q 654 39 654 14 l 654 90 l 535 90 q 485 117 503 90 q 479 172 467 144 l 603 478 q 635 511 613 501 q 681 511 657 521 q 708 489 699 504 q 718 456 718 474 q 714 433 718 443 q 682 354 697 393 q 653 282 668 321 q 624 210 638 243 l 654 210 l 654 233 q 672 276 654 258 q 714 293 689 293 q 756 276 739 293 q 774 233 774 258 l 774 210 l 786 210 m 660 904 q 694 867 685 893 q 690 815 703 840 l 301 10 q 264 -24 290 -15 q 213 -21 238 -33 q 178 17 188 -10 q 182 68 169 43 l 571 874 q 608 908 582 899 q 660 904 635 917 z "},"¼":{"ha":831,"x_min":17,"x_max":804,"o":"m 140 700 q 134 694 138 697 q 128 688 131 690 l 119 679 q 76 661 101 661 q 35 679 51 661 q 17 721 17 696 q 35 764 17 746 l 157 888 q 188 903 171 900 q 224 900 206 907 q 250 878 240 893 q 260 844 260 863 l 260 428 q 242 385 260 403 q 200 368 225 368 q 158 385 175 368 q 140 428 140 403 l 140 700 m 744 210 q 787 192 769 210 q 804 150 804 175 q 787 108 804 125 q 744 90 769 90 l 732 90 l 732 39 q 715 -3 732 14 q 672 -21 697 -21 q 630 -3 647 -21 q 613 39 613 14 l 613 90 l 493 90 q 443 117 461 90 q 438 172 425 144 l 561 478 q 593 511 571 501 q 639 511 615 521 q 667 489 657 504 q 676 456 676 474 q 672 433 676 443 q 640 354 656 393 q 611 282 626 321 q 582 210 596 243 l 613 210 l 613 233 q 630 276 613 258 q 672 293 647 293 q 715 276 697 293 q 732 233 732 258 l 732 210 l 744 210 m 618 904 q 652 867 643 893 q 649 815 661 840 l 260 10 q 222 -24 249 -15 q 171 -21 196 -33 q 137 17 146 -10 q 140 68 128 43 l 529 874 q 567 908 540 899 q 618 904 593 917 z "},"½":{"ha":828,"x_min":17,"x_max":813,"o":"m 140 700 q 134 694 138 697 q 128 688 131 690 l 119 679 q 76 661 101 661 q 35 679 51 661 q 17 721 17 696 q 35 764 17 746 l 157 888 q 188 903 171 900 q 224 900 206 907 q 250 878 240 893 q 260 844 260 863 l 260 428 q 242 385 260 403 q 200 368 225 368 q 158 385 175 368 q 140 428 140 403 l 140 700 m 778 274 q 767 258 778 274 q 741 218 757 243 q 706 163 725 193 q 669 104 688 133 l 742 104 q 784 87 767 104 q 801 44 801 69 q 784 2 801 19 q 742 -15 767 -15 l 560 -15 q 507 15 525 -15 q 500 47 500 31 q 510 76 500 63 l 676 339 q 681 367 685 354 q 664 390 676 382 q 635 394 651 399 q 613 376 618 390 q 576 349 600 356 q 531 354 551 343 q 502 391 508 367 q 508 438 496 415 q 606 511 540 494 q 726 493 671 526 q 797 394 782 458 q 778 274 813 329 m 618 904 q 652 867 643 893 q 649 815 661 840 l 260 10 q 222 -24 249 -15 q 171 -21 196 -33 q 137 17 146 -10 q 140 68 128 43 l 529 874 q 567 908 540 899 q 618 904 593 917 z "},"¹":{"ha":325,"x_min":17,"x_max":260,"o":"m 224 900 q 250 878 240 893 q 260 844 260 863 l 260 428 q 242 385 260 403 q 200 368 225 368 q 158 385 175 368 q 140 428 140 403 l 140 700 q 134 694 138 697 q 128 688 131 690 l 119 679 q 76 661 101 661 q 35 679 51 661 q 17 721 17 696 q 35 764 17 746 l 157 888 q 188 903 171 900 q 224 900 206 907 z "},"²":{"ha":413,"x_min":51,"x_max":368,"o":"m 333 663 q 323 647 333 663 q 297 607 313 632 q 262 552 281 582 q 225 493 243 522 l 297 493 q 340 476 322 493 q 357 433 357 458 q 340 391 357 408 q 297 374 322 374 l 115 374 q 63 404 81 374 q 56 435 56 419 q 65 465 56 451 l 232 728 q 236 756 240 743 q 219 779 232 771 q 190 783 207 788 q 168 765 174 779 q 131 738 156 744 q 86 743 107 732 q 58 780 64 756 q 64 826 51 804 q 161 900 96 883 q 282 882 226 915 q 353 783 338 847 q 333 663 368 718 z "},"³":{"ha":411,"x_min":50,"x_max":356,"o":"m 335 668 q 328 659 332 664 q 322 650 325 654 q 356 553 356 608 l 356 525 q 324 430 356 472 q 239 374 292 388 q 138 379 188 358 q 63 446 89 400 q 56 492 50 468 q 85 528 63 515 q 130 534 106 540 q 167 507 154 528 q 208 489 181 482 q 228 502 221 492 q 236 525 236 513 l 236 553 q 225 579 236 568 q 199 590 214 590 q 156 608 174 590 q 139 650 139 625 q 156 692 139 675 q 199 710 174 710 q 231 729 219 710 q 231 765 242 747 q 199 785 219 785 q 167 765 178 785 q 130 738 154 744 q 85 743 106 732 q 56 780 63 756 q 63 826 50 804 q 120 883 83 863 q 199 904 157 904 q 277 883 240 904 q 335 826 314 863 q 356 747 356 790 q 335 668 356 704 z "},"ª":{"ha":424,"x_min":56,"x_max":369,"o":"m 253 899 q 338 842 306 885 q 369 747 369 800 l 369 456 q 352 413 369 431 q 310 396 335 396 l 213 396 q 152 408 181 396 q 102 442 124 421 q 68 492 81 464 q 56 553 56 521 q 68 613 56 585 q 102 663 81 642 q 152 697 124 685 q 213 710 181 710 l 250 710 l 250 747 q 242 770 250 760 q 222 783 235 781 q 181 765 194 790 q 144 738 168 744 q 99 743 119 732 q 70 780 76 756 q 76 826 64 804 q 152 893 103 872 q 253 899 201 914 m 250 515 l 250 590 l 213 590 q 186 579 197 590 q 175 553 175 568 q 186 526 175 538 q 213 515 197 515 l 250 515 z "},"º":{"ha":424,"x_min":56,"x_max":369,"o":"m 213 904 q 273 892 244 904 q 323 858 301 879 q 357 808 344 836 q 369 747 369 779 l 369 553 q 357 492 369 521 q 323 442 344 464 q 273 408 301 421 q 213 396 244 396 q 152 408 181 396 q 102 442 124 421 q 68 492 81 464 q 56 553 56 521 l 56 747 q 68 808 56 779 q 102 858 81 836 q 152 892 124 879 q 213 904 181 904 m 213 515 q 239 526 228 515 q 250 553 250 538 l 250 747 q 239 774 250 763 q 213 785 228 785 q 186 774 197 785 q 175 747 175 763 l 175 553 q 186 526 175 538 q 213 515 197 515 z "},"§":{"ha":578,"x_min":82,"x_max":497,"o":"m 417 550 q 478 467 458 517 q 486 365 497 418 q 440 271 475 310 q 472 168 472 224 q 456 85 474 124 q 407 18 439 46 q 249 -25 338 -40 q 172 6 207 -18 q 115 68 138 31 q 109 118 101 92 q 140 160 117 144 q 190 166 164 174 q 231 135 217 158 q 252 114 240 119 q 271 107 264 108 q 292 106 279 104 q 319 119 306 108 q 337 144 333 131 q 339 165 340 157 q 335 185 339 172 q 318 210 332 199 l 163 333 q 101 416 119 367 q 93 518 82 465 q 139 613 104 574 q 106 715 108 656 q 123 797 106 758 q 172 864 140 836 q 247 903 206 892 q 331 908 288 915 q 407 877 372 901 q 464 815 442 853 q 470 765 478 792 q 439 724 463 739 q 389 717 415 710 q 349 749 363 725 q 327 769 339 764 q 307 776 315 775 q 287 777 300 779 q 260 764 274 775 q 242 740 246 753 q 239 718 239 726 q 244 698 240 711 q 261 674 247 685 l 417 550 m 342 361 q 356 389 351 372 q 335 446 363 424 l 238 522 q 224 494 228 511 q 244 438 217 460 l 342 361 z "},"φ":{"ha":756,"x_min":33,"x_max":722,"o":"m 621 699 q 696 588 669 650 q 722 456 722 525 q 696 324 722 386 q 621 213 669 261 q 510 138 572 164 q 378 111 447 111 q 267 129 317 111 l 235 74 q 193 42 219 50 q 143 49 167 35 q 112 90 119 63 q 118 140 104 117 l 151 196 l 135 213 q 60 324 86 261 q 33 456 33 386 q 60 588 33 525 q 135 699 86 650 q 246 774 183 747 q 378 800 308 800 q 435 795 407 800 q 489 782 463 790 l 521 838 q 563 869 536 861 q 613 863 589 876 q 644 821 636 847 q 638 771 651 794 l 604 715 l 621 699 m 167 456 q 181 379 167 415 q 219 315 194 343 l 421 663 q 378 667 400 667 q 295 650 333 667 q 228 605 257 633 q 183 538 200 576 q 167 456 167 499 m 526 306 q 589 456 589 368 q 574 532 589 496 q 536 596 560 568 l 335 249 q 378 244 356 244 q 459 260 421 244 q 526 306 497 276 z "},"P":{"ha":556,"x_min":72,"x_max":539,"o":"m 72 839 q 92 886 72 867 q 139 906 111 906 l 306 906 q 397 888 354 906 q 471 838 439 869 q 521 763 503 806 q 539 672 539 721 l 539 594 q 521 503 539 546 q 471 429 503 461 q 397 379 439 397 q 306 361 354 361 l 206 361 l 206 39 q 186 -8 206 11 q 139 -28 167 -28 q 92 -8 111 -28 q 72 39 72 11 l 72 839 m 406 672 q 376 743 406 714 q 306 772 347 772 l 206 772 l 206 494 l 306 494 q 376 524 347 494 q 406 594 406 553 l 406 672 z "},"~":{"ha":578,"x_min":35,"x_max":544,"o":"m 513 439 q 539 398 533 424 q 529 351 544 372 q 476 298 508 319 q 404 269 443 276 q 329 272 367 263 q 260 304 292 281 l 243 317 q 196 328 221 332 q 154 301 169 324 q 114 274 139 279 q 67 283 89 268 q 40 324 44 299 q 49 371 35 349 q 103 424 71 403 q 174 453 136 446 q 319 418 254 465 l 336 406 q 383 394 358 388 q 424 421 411 399 q 465 449 439 443 q 513 439 490 454 z "},"¤":{"ha":972,"x_min":49,"x_max":924,"o":"m 917 560 q 924 546 924 556 l 924 135 q 914 119 924 124 l 831 78 l 663 -7 l 578 -49 l 576 -50 l 575 -50 q 571 -51 574 -51 q 567 -50 567 -51 l 565 -50 q 563 -49 564 -50 l 58 203 q 49 218 49 207 l 49 631 q 50 633 49 632 l 50 635 q 51 638 50 636 l 51 639 l 219 928 q 242 935 226 942 l 746 683 l 747 682 l 749 682 l 917 560 m 89 638 l 564 400 l 715 661 l 240 897 l 89 638 m 554 368 l 83 603 l 83 228 l 554 -7 l 554 368 m 807 103 l 806 476 l 671 410 l 671 35 l 807 103 m 890 538 l 743 643 l 588 374 l 588 -7 l 638 18 l 638 419 q 647 435 638 429 l 815 519 q 832 518 821 524 q 839 504 839 514 l 840 119 l 890 144 l 890 538 m 204 292 q 194 307 194 296 l 194 478 q 203 493 194 486 q 219 493 210 497 l 422 392 q 432 376 432 386 l 432 206 q 424 190 432 194 q 415 188 418 188 q 407 190 413 188 l 204 292 m 229 317 l 399 232 l 399 367 l 229 451 l 229 317 z "}}}
